M48
; DRILL file {KiCad 8.0.2} date 2024-05-05T20:12:35+0200
; FORMAT={-:-/ absolute / metric / decimal}
; #@! TF.CreationDate,2024-05-05T20:12:35+02:00
; #@! TF.GenerationSoftware,Kicad,Pcbnew,8.0.2
; #@! TF.FileFunction,Plated,1,2,PTH
FMAT,2
METRIC
; #@! TA.AperFunction,Plated,PTH,ViaDrill
T1C0.300
%
G90
G05
T1
X36.0Y-42.0
X36.0Y-43.0
X36.0Y-44.0
X36.0Y-45.0
X36.0Y-46.0
X40.0Y-42.3
X40.0Y-43.3
X40.5Y-45.0
X41.1Y-41.9
X41.1Y-48.1
X41.6Y-45.0
X42.0Y-43.0
X42.0Y-47.0
X42.2Y-38.9
X43.0Y-43.0
X43.0Y-47.0
X43.9Y-48.4
X43.9Y-49.4
X44.0Y-43.0
X44.0Y-47.0
X44.2Y-38.7
X44.7Y-50.2
X45.0Y-45.8
X45.0Y-46.6
X45.1Y-43.6
X46.5Y-44.9
X46.5Y-47.6
X47.3Y-47.6
X47.7Y-45.6
X47.8Y-32.1
X48.7Y-45.4
X48.8Y-49.9
X50.4Y-43.2
X50.4Y-47.1
X50.471Y-40.768
X50.6Y-38.9
X52.4Y-46.9
X52.4Y-51.4
X52.55Y-49.201
X52.7Y-48.3
X53.2Y-50.5
X53.5Y-42.0
X54.3Y-48.5
X54.5Y-42.0
X54.9Y-47.9
X55.5Y-42.0
X55.9Y-43.8
X56.1Y-47.1
X57.0Y-49.0
X58.5Y-42.0
X59.2Y-49.2
X59.5Y-42.0
X60.0Y-49.5
X60.5Y-42.0
X60.5Y-47.8
X60.5Y-54.0
X60.9Y-41.0
X61.076Y-46.624
X61.8Y-37.0
X62.0Y-42.1
X62.0Y-45.2
X62.1Y-48.0
X62.5Y-46.1
X62.7Y-37.0
X63.0Y-41.5
X63.324Y-46.124
X63.5Y-40.5
X66.4Y-33.2
X67.0Y-38.0
X67.9Y-34.3
X68.0Y-38.0
M30
