G04 #@! TF.GenerationSoftware,KiCad,Pcbnew,8.0.2*
G04 #@! TF.CreationDate,2024-05-05T20:12:28+02:00*
G04 #@! TF.ProjectId,sensor_board_voc_temp,73656e73-6f72-45f6-926f-6172645f766f,A*
G04 #@! TF.SameCoordinates,Original*
G04 #@! TF.FileFunction,Profile,NP*
%FSLAX46Y46*%
G04 Gerber Fmt 4.6, Leading zero omitted, Abs format (unit mm)*
G04 Created by KiCad (PCBNEW 8.0.2) date 2024-05-05 20:12:28*
%MOMM*%
%LPD*%
G01*
G04 APERTURE LIST*
G04 #@! TA.AperFunction,Profile*
%ADD10C,0.050000*%
G04 #@! TD*
G04 APERTURE END LIST*
D10*
X68000000Y-30000000D02*
G75*
G02*
X70000000Y-32000000I0J-2000000D01*
G01*
X63038892Y-52392133D02*
X64407855Y-53754626D01*
X68401727Y-53750111D01*
X68823223Y-53323223D01*
X68861108Y-53292132D01*
X68951228Y-53254803D01*
X69048772Y-53254803D01*
X69138892Y-53292132D01*
X69207868Y-53361108D01*
X69245197Y-53451228D01*
X69245197Y-53548772D01*
X69207868Y-53638892D01*
X68676777Y-54176777D01*
X68638897Y-54207862D01*
X68638893Y-54207867D01*
X68548773Y-54245196D01*
X64300000Y-54250000D01*
X64251227Y-54245196D01*
X64161107Y-54207867D01*
X64160896Y-54207656D01*
X62723223Y-52776777D01*
X62692133Y-52738892D01*
X62654804Y-52648772D01*
X62654804Y-52551228D01*
X62692133Y-52461108D01*
X62761108Y-52392133D01*
X62851228Y-52354804D01*
X62948772Y-52354804D01*
X63038892Y-52392133D01*
X70000000Y-55000000D02*
G75*
G02*
X68000000Y-57000000I-2000000J0D01*
G01*
X68548773Y-47254804D02*
X68638893Y-47292133D01*
X68638971Y-47292211D01*
X69176777Y-47823223D01*
X69207868Y-47861108D01*
X69245197Y-47951228D01*
X69245197Y-48048772D01*
X69207868Y-48138892D01*
X69138892Y-48207868D01*
X69048772Y-48245197D01*
X68951228Y-48245197D01*
X68861108Y-48207868D01*
X68392695Y-47745372D01*
X64397393Y-47749889D01*
X63076777Y-49076777D01*
X63038892Y-49107867D01*
X62948772Y-49145196D01*
X62851228Y-49145196D01*
X62761108Y-49107867D01*
X62692133Y-49038892D01*
X62654804Y-48948772D01*
X62654804Y-48851228D01*
X62692133Y-48761108D01*
X64123223Y-47323223D01*
X64161102Y-47292137D01*
X64161107Y-47292133D01*
X64251227Y-47254804D01*
X68500000Y-47250000D01*
X68548773Y-47254804D01*
X30000000Y-32000000D02*
G75*
G02*
X32000000Y-30000000I2000000J0D01*
G01*
X30000000Y-55000000D02*
X30000000Y-32000000D01*
X70000000Y-32000000D02*
X70000000Y-55000000D01*
X32000000Y-57000000D02*
G75*
G02*
X30000000Y-55000000I0J2000000D01*
G01*
X32000000Y-30000000D02*
X68000000Y-30000000D01*
X68000000Y-57000000D02*
X32000000Y-57000000D01*
M02*
