%TF.GenerationSoftware,KiCad,Pcbnew,8.0.2*%
%TF.CreationDate,2024-05-05T20:12:36+02:00*%
%TF.ProjectId,sensor_board_voc_temp,73656e73-6f72-45f6-926f-6172645f766f,A*%
%TF.SameCoordinates,Original*%
%TF.FileFunction,Drillmap*%
%TF.FilePolarity,Positive*%
%FSLAX45Y45*%
G04 Gerber Fmt 4.5, Leading zero omitted, Abs format (unit mm)*
G04 Created by KiCad (PCBNEW 8.0.2) date 2024-05-05 20:12:36*
%MOMM*%
%LPD*%
G01*
G04 APERTURE LIST*
%ADD10C,0.050000*%
%ADD11C,0.200000*%
%ADD12C,0.100000*%
G04 APERTURE END LIST*
D10*
X6800000Y-3000000D02*
G75*
G02*
X7000000Y-3200000I0J-200000D01*
G01*
X6303889Y-5239213D02*
X6440785Y-5375463D01*
X6840173Y-5375011D01*
X6882322Y-5332322D01*
X6886111Y-5329213D01*
X6895123Y-5325480D01*
X6904877Y-5325480D01*
X6913889Y-5329213D01*
X6920787Y-5336111D01*
X6924520Y-5345123D01*
X6924520Y-5354877D01*
X6920787Y-5363889D01*
X6867678Y-5417678D01*
X6863890Y-5420786D01*
X6863889Y-5420787D01*
X6854877Y-5424520D01*
X6430000Y-5425000D01*
X6425123Y-5424520D01*
X6416111Y-5420787D01*
X6416090Y-5420766D01*
X6272322Y-5277678D01*
X6269213Y-5273889D01*
X6265480Y-5264877D01*
X6265480Y-5255123D01*
X6269213Y-5246111D01*
X6276111Y-5239213D01*
X6285123Y-5235480D01*
X6294877Y-5235480D01*
X6303889Y-5239213D01*
X7000000Y-5500000D02*
G75*
G02*
X6800000Y-5700000I-200000J0D01*
G01*
X6854877Y-4725480D02*
X6863889Y-4729213D01*
X6863897Y-4729221D01*
X6917678Y-4782322D01*
X6920787Y-4786111D01*
X6924520Y-4795123D01*
X6924520Y-4804877D01*
X6920787Y-4813889D01*
X6913889Y-4820787D01*
X6904877Y-4824520D01*
X6895123Y-4824520D01*
X6886111Y-4820787D01*
X6839269Y-4774537D01*
X6439739Y-4774989D01*
X6307678Y-4907678D01*
X6303889Y-4910787D01*
X6294877Y-4914520D01*
X6285123Y-4914520D01*
X6276111Y-4910787D01*
X6269213Y-4903889D01*
X6265480Y-4894877D01*
X6265480Y-4885123D01*
X6269213Y-4876111D01*
X6412322Y-4732322D01*
X6416110Y-4729214D01*
X6416111Y-4729213D01*
X6425123Y-4725480D01*
X6850000Y-4725000D01*
X6854877Y-4725480D01*
X3000000Y-3200000D02*
G75*
G02*
X3200000Y-3000000I200000J0D01*
G01*
X3000000Y-5500000D02*
X3000000Y-3200000D01*
X7000000Y-3200000D02*
X7000000Y-5500000D01*
X3200000Y-5700000D02*
G75*
G02*
X3000000Y-5500000I0J200000D01*
G01*
X3200000Y-3000000D02*
X6800000Y-3000000D01*
X6800000Y-5700000D02*
X3200000Y-5700000D01*
D11*
D12*
X3585000Y-4185000D02*
X3615000Y-4215000D01*
X3615000Y-4185000D02*
X3585000Y-4215000D01*
X3585000Y-4285000D02*
X3615000Y-4315000D01*
X3615000Y-4285000D02*
X3585000Y-4315000D01*
X3585000Y-4385000D02*
X3615000Y-4415000D01*
X3615000Y-4385000D02*
X3585000Y-4415000D01*
X3585000Y-4485000D02*
X3615000Y-4515000D01*
X3615000Y-4485000D02*
X3585000Y-4515000D01*
X3585000Y-4585000D02*
X3615000Y-4615000D01*
X3615000Y-4585000D02*
X3585000Y-4615000D01*
X3985000Y-4215000D02*
X4015000Y-4245000D01*
X4015000Y-4215000D02*
X3985000Y-4245000D01*
X3985000Y-4315000D02*
X4015000Y-4345000D01*
X4015000Y-4315000D02*
X3985000Y-4345000D01*
X4035000Y-4485000D02*
X4065000Y-4515000D01*
X4065000Y-4485000D02*
X4035000Y-4515000D01*
X4095000Y-4175000D02*
X4125000Y-4205000D01*
X4125000Y-4175000D02*
X4095000Y-4205000D01*
X4095000Y-4795000D02*
X4125000Y-4825000D01*
X4125000Y-4795000D02*
X4095000Y-4825000D01*
X4145000Y-4485000D02*
X4175000Y-4515000D01*
X4175000Y-4485000D02*
X4145000Y-4515000D01*
X4185000Y-4285000D02*
X4215000Y-4315000D01*
X4215000Y-4285000D02*
X4185000Y-4315000D01*
X4185000Y-4685000D02*
X4215000Y-4715000D01*
X4215000Y-4685000D02*
X4185000Y-4715000D01*
X4205000Y-3875000D02*
X4235000Y-3905000D01*
X4235000Y-3875000D02*
X4205000Y-3905000D01*
X4285000Y-4285000D02*
X4315000Y-4315000D01*
X4315000Y-4285000D02*
X4285000Y-4315000D01*
X4285000Y-4685000D02*
X4315000Y-4715000D01*
X4315000Y-4685000D02*
X4285000Y-4715000D01*
X4375000Y-4825000D02*
X4405000Y-4855000D01*
X4405000Y-4825000D02*
X4375000Y-4855000D01*
X4375000Y-4925000D02*
X4405000Y-4955000D01*
X4405000Y-4925000D02*
X4375000Y-4955000D01*
X4385000Y-4285000D02*
X4415000Y-4315000D01*
X4415000Y-4285000D02*
X4385000Y-4315000D01*
X4385000Y-4685000D02*
X4415000Y-4715000D01*
X4415000Y-4685000D02*
X4385000Y-4715000D01*
X4405000Y-3855000D02*
X4435000Y-3885000D01*
X4435000Y-3855000D02*
X4405000Y-3885000D01*
X4455000Y-5005000D02*
X4485000Y-5035000D01*
X4485000Y-5005000D02*
X4455000Y-5035000D01*
X4485000Y-4565000D02*
X4515000Y-4595000D01*
X4515000Y-4565000D02*
X4485000Y-4595000D01*
X4485000Y-4645000D02*
X4515000Y-4675000D01*
X4515000Y-4645000D02*
X4485000Y-4675000D01*
X4495000Y-4345000D02*
X4525000Y-4375000D01*
X4525000Y-4345000D02*
X4495000Y-4375000D01*
X4635000Y-4475000D02*
X4665000Y-4505000D01*
X4665000Y-4475000D02*
X4635000Y-4505000D01*
X4635000Y-4745000D02*
X4665000Y-4775000D01*
X4665000Y-4745000D02*
X4635000Y-4775000D01*
X4715000Y-4745000D02*
X4745000Y-4775000D01*
X4745000Y-4745000D02*
X4715000Y-4775000D01*
X4755000Y-4545000D02*
X4785000Y-4575000D01*
X4785000Y-4545000D02*
X4755000Y-4575000D01*
X4765000Y-3195000D02*
X4795000Y-3225000D01*
X4795000Y-3195000D02*
X4765000Y-3225000D01*
X4855000Y-4525000D02*
X4885000Y-4555000D01*
X4885000Y-4525000D02*
X4855000Y-4555000D01*
X4865000Y-4975000D02*
X4895000Y-5005000D01*
X4895000Y-4975000D02*
X4865000Y-5005000D01*
X5025000Y-4305000D02*
X5055000Y-4335000D01*
X5055000Y-4305000D02*
X5025000Y-4335000D01*
X5025000Y-4695000D02*
X5055000Y-4725000D01*
X5055000Y-4695000D02*
X5025000Y-4725000D01*
X5032143Y-4061791D02*
X5062143Y-4091791D01*
X5062143Y-4061791D02*
X5032143Y-4091791D01*
X5045000Y-3875000D02*
X5075000Y-3905000D01*
X5075000Y-3875000D02*
X5045000Y-3905000D01*
X5225000Y-4675000D02*
X5255000Y-4705000D01*
X5255000Y-4675000D02*
X5225000Y-4705000D01*
X5225000Y-5125000D02*
X5255000Y-5155000D01*
X5255000Y-5125000D02*
X5225000Y-5155000D01*
X5240000Y-4905147D02*
X5270000Y-4935147D01*
X5270000Y-4905147D02*
X5240000Y-4935147D01*
X5255000Y-4815000D02*
X5285000Y-4845000D01*
X5285000Y-4815000D02*
X5255000Y-4845000D01*
X5305000Y-5035000D02*
X5335000Y-5065000D01*
X5335000Y-5035000D02*
X5305000Y-5065000D01*
X5335000Y-4185000D02*
X5365000Y-4215000D01*
X5365000Y-4185000D02*
X5335000Y-4215000D01*
X5415000Y-4835000D02*
X5445000Y-4865000D01*
X5445000Y-4835000D02*
X5415000Y-4865000D01*
X5435000Y-4185000D02*
X5465000Y-4215000D01*
X5465000Y-4185000D02*
X5435000Y-4215000D01*
X5475000Y-4775000D02*
X5505000Y-4805000D01*
X5505000Y-4775000D02*
X5475000Y-4805000D01*
X5535000Y-4185000D02*
X5565000Y-4215000D01*
X5565000Y-4185000D02*
X5535000Y-4215000D01*
X5575000Y-4365000D02*
X5605000Y-4395000D01*
X5605000Y-4365000D02*
X5575000Y-4395000D01*
X5595000Y-4695000D02*
X5625000Y-4725000D01*
X5625000Y-4695000D02*
X5595000Y-4725000D01*
X5685000Y-4885000D02*
X5715000Y-4915000D01*
X5715000Y-4885000D02*
X5685000Y-4915000D01*
X5835000Y-4185000D02*
X5865000Y-4215000D01*
X5865000Y-4185000D02*
X5835000Y-4215000D01*
X5905000Y-4905000D02*
X5935000Y-4935000D01*
X5935000Y-4905000D02*
X5905000Y-4935000D01*
X5935000Y-4185000D02*
X5965000Y-4215000D01*
X5965000Y-4185000D02*
X5935000Y-4215000D01*
X5985000Y-4935000D02*
X6015000Y-4965000D01*
X6015000Y-4935000D02*
X5985000Y-4965000D01*
X6035000Y-4185000D02*
X6065000Y-4215000D01*
X6065000Y-4185000D02*
X6035000Y-4215000D01*
X6035000Y-4765000D02*
X6065000Y-4795000D01*
X6065000Y-4765000D02*
X6035000Y-4795000D01*
X6035000Y-5385000D02*
X6065000Y-5415000D01*
X6065000Y-5385000D02*
X6035000Y-5415000D01*
X6075000Y-4085000D02*
X6105000Y-4115000D01*
X6105000Y-4085000D02*
X6075000Y-4115000D01*
X6092573Y-4647427D02*
X6122573Y-4677427D01*
X6122573Y-4647427D02*
X6092573Y-4677427D01*
X6165000Y-3685000D02*
X6195000Y-3715000D01*
X6195000Y-3685000D02*
X6165000Y-3715000D01*
X6185000Y-4195000D02*
X6215000Y-4225000D01*
X6215000Y-4195000D02*
X6185000Y-4225000D01*
X6185000Y-4505000D02*
X6215000Y-4535000D01*
X6215000Y-4505000D02*
X6185000Y-4535000D01*
X6195000Y-4785000D02*
X6225000Y-4815000D01*
X6225000Y-4785000D02*
X6195000Y-4815000D01*
X6235000Y-4595000D02*
X6265000Y-4625000D01*
X6265000Y-4595000D02*
X6235000Y-4625000D01*
X6255000Y-3685000D02*
X6285000Y-3715000D01*
X6285000Y-3685000D02*
X6255000Y-3715000D01*
X6285000Y-4135000D02*
X6315000Y-4165000D01*
X6315000Y-4135000D02*
X6285000Y-4165000D01*
X6317426Y-4597427D02*
X6347426Y-4627427D01*
X6347426Y-4597427D02*
X6317426Y-4627427D01*
X6335000Y-4035000D02*
X6365000Y-4065000D01*
X6365000Y-4035000D02*
X6335000Y-4065000D01*
X6625000Y-3305000D02*
X6655000Y-3335000D01*
X6655000Y-3305000D02*
X6625000Y-3335000D01*
X6685000Y-3785000D02*
X6715000Y-3815000D01*
X6715000Y-3785000D02*
X6685000Y-3815000D01*
X6775000Y-3415000D02*
X6805000Y-3445000D01*
X6805000Y-3415000D02*
X6775000Y-3445000D01*
X6785000Y-3785000D02*
X6815000Y-3815000D01*
X6815000Y-3785000D02*
X6785000Y-3815000D01*
D11*
X3258277Y-6013984D02*
X3258277Y-5813984D01*
X3258277Y-5813984D02*
X3305896Y-5813984D01*
X3305896Y-5813984D02*
X3334467Y-5823508D01*
X3334467Y-5823508D02*
X3353515Y-5842555D01*
X3353515Y-5842555D02*
X3363039Y-5861603D01*
X3363039Y-5861603D02*
X3372562Y-5899698D01*
X3372562Y-5899698D02*
X3372562Y-5928269D01*
X3372562Y-5928269D02*
X3363039Y-5966365D01*
X3363039Y-5966365D02*
X3353515Y-5985412D01*
X3353515Y-5985412D02*
X3334467Y-6004460D01*
X3334467Y-6004460D02*
X3305896Y-6013984D01*
X3305896Y-6013984D02*
X3258277Y-6013984D01*
X3458277Y-6013984D02*
X3458277Y-5880650D01*
X3458277Y-5918746D02*
X3467801Y-5899698D01*
X3467801Y-5899698D02*
X3477324Y-5890174D01*
X3477324Y-5890174D02*
X3496372Y-5880650D01*
X3496372Y-5880650D02*
X3515420Y-5880650D01*
X3582086Y-6013984D02*
X3582086Y-5880650D01*
X3582086Y-5813984D02*
X3572562Y-5823508D01*
X3572562Y-5823508D02*
X3582086Y-5833031D01*
X3582086Y-5833031D02*
X3591610Y-5823508D01*
X3591610Y-5823508D02*
X3582086Y-5813984D01*
X3582086Y-5813984D02*
X3582086Y-5833031D01*
X3705896Y-6013984D02*
X3686848Y-6004460D01*
X3686848Y-6004460D02*
X3677324Y-5985412D01*
X3677324Y-5985412D02*
X3677324Y-5813984D01*
X3810658Y-6013984D02*
X3791610Y-6004460D01*
X3791610Y-6004460D02*
X3782086Y-5985412D01*
X3782086Y-5985412D02*
X3782086Y-5813984D01*
X4039229Y-6013984D02*
X4039229Y-5813984D01*
X4039229Y-5813984D02*
X4105896Y-5956841D01*
X4105896Y-5956841D02*
X4172562Y-5813984D01*
X4172562Y-5813984D02*
X4172562Y-6013984D01*
X4353515Y-6013984D02*
X4353515Y-5909222D01*
X4353515Y-5909222D02*
X4343991Y-5890174D01*
X4343991Y-5890174D02*
X4324944Y-5880650D01*
X4324944Y-5880650D02*
X4286848Y-5880650D01*
X4286848Y-5880650D02*
X4267801Y-5890174D01*
X4353515Y-6004460D02*
X4334467Y-6013984D01*
X4334467Y-6013984D02*
X4286848Y-6013984D01*
X4286848Y-6013984D02*
X4267801Y-6004460D01*
X4267801Y-6004460D02*
X4258277Y-5985412D01*
X4258277Y-5985412D02*
X4258277Y-5966365D01*
X4258277Y-5966365D02*
X4267801Y-5947317D01*
X4267801Y-5947317D02*
X4286848Y-5937793D01*
X4286848Y-5937793D02*
X4334467Y-5937793D01*
X4334467Y-5937793D02*
X4353515Y-5928269D01*
X4448753Y-5880650D02*
X4448753Y-6080650D01*
X4448753Y-5890174D02*
X4467801Y-5880650D01*
X4467801Y-5880650D02*
X4505896Y-5880650D01*
X4505896Y-5880650D02*
X4524944Y-5890174D01*
X4524944Y-5890174D02*
X4534467Y-5899698D01*
X4534467Y-5899698D02*
X4543991Y-5918746D01*
X4543991Y-5918746D02*
X4543991Y-5975888D01*
X4543991Y-5975888D02*
X4534467Y-5994936D01*
X4534467Y-5994936D02*
X4524944Y-6004460D01*
X4524944Y-6004460D02*
X4505896Y-6013984D01*
X4505896Y-6013984D02*
X4467801Y-6013984D01*
X4467801Y-6013984D02*
X4448753Y-6004460D01*
X4629705Y-5994936D02*
X4639229Y-6004460D01*
X4639229Y-6004460D02*
X4629705Y-6013984D01*
X4629705Y-6013984D02*
X4620182Y-6004460D01*
X4620182Y-6004460D02*
X4629705Y-5994936D01*
X4629705Y-5994936D02*
X4629705Y-6013984D01*
X4629705Y-5890174D02*
X4639229Y-5899698D01*
X4639229Y-5899698D02*
X4629705Y-5909222D01*
X4629705Y-5909222D02*
X4620182Y-5899698D01*
X4620182Y-5899698D02*
X4629705Y-5890174D01*
X4629705Y-5890174D02*
X4629705Y-5909222D01*
D12*
X2967500Y-6327500D02*
X2997500Y-6357500D01*
X2997500Y-6327500D02*
X2967500Y-6357500D01*
D11*
X3296372Y-6233984D02*
X3315420Y-6233984D01*
X3315420Y-6233984D02*
X3334467Y-6243508D01*
X3334467Y-6243508D02*
X3343991Y-6253031D01*
X3343991Y-6253031D02*
X3353515Y-6272079D01*
X3353515Y-6272079D02*
X3363039Y-6310174D01*
X3363039Y-6310174D02*
X3363039Y-6357793D01*
X3363039Y-6357793D02*
X3353515Y-6395888D01*
X3353515Y-6395888D02*
X3343991Y-6414936D01*
X3343991Y-6414936D02*
X3334467Y-6424460D01*
X3334467Y-6424460D02*
X3315420Y-6433984D01*
X3315420Y-6433984D02*
X3296372Y-6433984D01*
X3296372Y-6433984D02*
X3277324Y-6424460D01*
X3277324Y-6424460D02*
X3267801Y-6414936D01*
X3267801Y-6414936D02*
X3258277Y-6395888D01*
X3258277Y-6395888D02*
X3248753Y-6357793D01*
X3248753Y-6357793D02*
X3248753Y-6310174D01*
X3248753Y-6310174D02*
X3258277Y-6272079D01*
X3258277Y-6272079D02*
X3267801Y-6253031D01*
X3267801Y-6253031D02*
X3277324Y-6243508D01*
X3277324Y-6243508D02*
X3296372Y-6233984D01*
X3448753Y-6414936D02*
X3458277Y-6424460D01*
X3458277Y-6424460D02*
X3448753Y-6433984D01*
X3448753Y-6433984D02*
X3439229Y-6424460D01*
X3439229Y-6424460D02*
X3448753Y-6414936D01*
X3448753Y-6414936D02*
X3448753Y-6433984D01*
X3524943Y-6233984D02*
X3648753Y-6233984D01*
X3648753Y-6233984D02*
X3582086Y-6310174D01*
X3582086Y-6310174D02*
X3610658Y-6310174D01*
X3610658Y-6310174D02*
X3629705Y-6319698D01*
X3629705Y-6319698D02*
X3639229Y-6329222D01*
X3639229Y-6329222D02*
X3648753Y-6348269D01*
X3648753Y-6348269D02*
X3648753Y-6395888D01*
X3648753Y-6395888D02*
X3639229Y-6414936D01*
X3639229Y-6414936D02*
X3629705Y-6424460D01*
X3629705Y-6424460D02*
X3610658Y-6433984D01*
X3610658Y-6433984D02*
X3553515Y-6433984D01*
X3553515Y-6433984D02*
X3534467Y-6424460D01*
X3534467Y-6424460D02*
X3524943Y-6414936D01*
X3772562Y-6233984D02*
X3791610Y-6233984D01*
X3791610Y-6233984D02*
X3810658Y-6243508D01*
X3810658Y-6243508D02*
X3820182Y-6253031D01*
X3820182Y-6253031D02*
X3829705Y-6272079D01*
X3829705Y-6272079D02*
X3839229Y-6310174D01*
X3839229Y-6310174D02*
X3839229Y-6357793D01*
X3839229Y-6357793D02*
X3829705Y-6395888D01*
X3829705Y-6395888D02*
X3820182Y-6414936D01*
X3820182Y-6414936D02*
X3810658Y-6424460D01*
X3810658Y-6424460D02*
X3791610Y-6433984D01*
X3791610Y-6433984D02*
X3772562Y-6433984D01*
X3772562Y-6433984D02*
X3753515Y-6424460D01*
X3753515Y-6424460D02*
X3743991Y-6414936D01*
X3743991Y-6414936D02*
X3734467Y-6395888D01*
X3734467Y-6395888D02*
X3724943Y-6357793D01*
X3724943Y-6357793D02*
X3724943Y-6310174D01*
X3724943Y-6310174D02*
X3734467Y-6272079D01*
X3734467Y-6272079D02*
X3743991Y-6253031D01*
X3743991Y-6253031D02*
X3753515Y-6243508D01*
X3753515Y-6243508D02*
X3772562Y-6233984D01*
X3963039Y-6233984D02*
X3982086Y-6233984D01*
X3982086Y-6233984D02*
X4001134Y-6243508D01*
X4001134Y-6243508D02*
X4010658Y-6253031D01*
X4010658Y-6253031D02*
X4020182Y-6272079D01*
X4020182Y-6272079D02*
X4029705Y-6310174D01*
X4029705Y-6310174D02*
X4029705Y-6357793D01*
X4029705Y-6357793D02*
X4020182Y-6395888D01*
X4020182Y-6395888D02*
X4010658Y-6414936D01*
X4010658Y-6414936D02*
X4001134Y-6424460D01*
X4001134Y-6424460D02*
X3982086Y-6433984D01*
X3982086Y-6433984D02*
X3963039Y-6433984D01*
X3963039Y-6433984D02*
X3943991Y-6424460D01*
X3943991Y-6424460D02*
X3934467Y-6414936D01*
X3934467Y-6414936D02*
X3924943Y-6395888D01*
X3924943Y-6395888D02*
X3915420Y-6357793D01*
X3915420Y-6357793D02*
X3915420Y-6310174D01*
X3915420Y-6310174D02*
X3924943Y-6272079D01*
X3924943Y-6272079D02*
X3934467Y-6253031D01*
X3934467Y-6253031D02*
X3943991Y-6243508D01*
X3943991Y-6243508D02*
X3963039Y-6233984D01*
X4115420Y-6433984D02*
X4115420Y-6300650D01*
X4115420Y-6319698D02*
X4124943Y-6310174D01*
X4124943Y-6310174D02*
X4143991Y-6300650D01*
X4143991Y-6300650D02*
X4172563Y-6300650D01*
X4172563Y-6300650D02*
X4191610Y-6310174D01*
X4191610Y-6310174D02*
X4201134Y-6329222D01*
X4201134Y-6329222D02*
X4201134Y-6433984D01*
X4201134Y-6329222D02*
X4210658Y-6310174D01*
X4210658Y-6310174D02*
X4229705Y-6300650D01*
X4229705Y-6300650D02*
X4258277Y-6300650D01*
X4258277Y-6300650D02*
X4277325Y-6310174D01*
X4277325Y-6310174D02*
X4286848Y-6329222D01*
X4286848Y-6329222D02*
X4286848Y-6433984D01*
X4382086Y-6433984D02*
X4382086Y-6300650D01*
X4382086Y-6319698D02*
X4391610Y-6310174D01*
X4391610Y-6310174D02*
X4410658Y-6300650D01*
X4410658Y-6300650D02*
X4439229Y-6300650D01*
X4439229Y-6300650D02*
X4458277Y-6310174D01*
X4458277Y-6310174D02*
X4467801Y-6329222D01*
X4467801Y-6329222D02*
X4467801Y-6433984D01*
X4467801Y-6329222D02*
X4477325Y-6310174D01*
X4477325Y-6310174D02*
X4496372Y-6300650D01*
X4496372Y-6300650D02*
X4524944Y-6300650D01*
X4524944Y-6300650D02*
X4543991Y-6310174D01*
X4543991Y-6310174D02*
X4553515Y-6329222D01*
X4553515Y-6329222D02*
X4553515Y-6433984D01*
X4943991Y-6224460D02*
X4772563Y-6481603D01*
X5201134Y-6233984D02*
X5220182Y-6233984D01*
X5220182Y-6233984D02*
X5239229Y-6243508D01*
X5239229Y-6243508D02*
X5248753Y-6253031D01*
X5248753Y-6253031D02*
X5258277Y-6272079D01*
X5258277Y-6272079D02*
X5267801Y-6310174D01*
X5267801Y-6310174D02*
X5267801Y-6357793D01*
X5267801Y-6357793D02*
X5258277Y-6395888D01*
X5258277Y-6395888D02*
X5248753Y-6414936D01*
X5248753Y-6414936D02*
X5239229Y-6424460D01*
X5239229Y-6424460D02*
X5220182Y-6433984D01*
X5220182Y-6433984D02*
X5201134Y-6433984D01*
X5201134Y-6433984D02*
X5182087Y-6424460D01*
X5182087Y-6424460D02*
X5172563Y-6414936D01*
X5172563Y-6414936D02*
X5163039Y-6395888D01*
X5163039Y-6395888D02*
X5153515Y-6357793D01*
X5153515Y-6357793D02*
X5153515Y-6310174D01*
X5153515Y-6310174D02*
X5163039Y-6272079D01*
X5163039Y-6272079D02*
X5172563Y-6253031D01*
X5172563Y-6253031D02*
X5182087Y-6243508D01*
X5182087Y-6243508D02*
X5201134Y-6233984D01*
X5353515Y-6414936D02*
X5363039Y-6424460D01*
X5363039Y-6424460D02*
X5353515Y-6433984D01*
X5353515Y-6433984D02*
X5343991Y-6424460D01*
X5343991Y-6424460D02*
X5353515Y-6414936D01*
X5353515Y-6414936D02*
X5353515Y-6433984D01*
X5486848Y-6233984D02*
X5505896Y-6233984D01*
X5505896Y-6233984D02*
X5524944Y-6243508D01*
X5524944Y-6243508D02*
X5534468Y-6253031D01*
X5534468Y-6253031D02*
X5543991Y-6272079D01*
X5543991Y-6272079D02*
X5553515Y-6310174D01*
X5553515Y-6310174D02*
X5553515Y-6357793D01*
X5553515Y-6357793D02*
X5543991Y-6395888D01*
X5543991Y-6395888D02*
X5534468Y-6414936D01*
X5534468Y-6414936D02*
X5524944Y-6424460D01*
X5524944Y-6424460D02*
X5505896Y-6433984D01*
X5505896Y-6433984D02*
X5486848Y-6433984D01*
X5486848Y-6433984D02*
X5467801Y-6424460D01*
X5467801Y-6424460D02*
X5458277Y-6414936D01*
X5458277Y-6414936D02*
X5448753Y-6395888D01*
X5448753Y-6395888D02*
X5439229Y-6357793D01*
X5439229Y-6357793D02*
X5439229Y-6310174D01*
X5439229Y-6310174D02*
X5448753Y-6272079D01*
X5448753Y-6272079D02*
X5458277Y-6253031D01*
X5458277Y-6253031D02*
X5467801Y-6243508D01*
X5467801Y-6243508D02*
X5486848Y-6233984D01*
X5743991Y-6433984D02*
X5629706Y-6433984D01*
X5686848Y-6433984D02*
X5686848Y-6233984D01*
X5686848Y-6233984D02*
X5667801Y-6262555D01*
X5667801Y-6262555D02*
X5648753Y-6281603D01*
X5648753Y-6281603D02*
X5629706Y-6291127D01*
X5934467Y-6433984D02*
X5820182Y-6433984D01*
X5877325Y-6433984D02*
X5877325Y-6233984D01*
X5877325Y-6233984D02*
X5858277Y-6262555D01*
X5858277Y-6262555D02*
X5839229Y-6281603D01*
X5839229Y-6281603D02*
X5820182Y-6291127D01*
X6048753Y-6319698D02*
X6029706Y-6310174D01*
X6029706Y-6310174D02*
X6020182Y-6300650D01*
X6020182Y-6300650D02*
X6010658Y-6281603D01*
X6010658Y-6281603D02*
X6010658Y-6272079D01*
X6010658Y-6272079D02*
X6020182Y-6253031D01*
X6020182Y-6253031D02*
X6029706Y-6243508D01*
X6029706Y-6243508D02*
X6048753Y-6233984D01*
X6048753Y-6233984D02*
X6086848Y-6233984D01*
X6086848Y-6233984D02*
X6105896Y-6243508D01*
X6105896Y-6243508D02*
X6115420Y-6253031D01*
X6115420Y-6253031D02*
X6124944Y-6272079D01*
X6124944Y-6272079D02*
X6124944Y-6281603D01*
X6124944Y-6281603D02*
X6115420Y-6300650D01*
X6115420Y-6300650D02*
X6105896Y-6310174D01*
X6105896Y-6310174D02*
X6086848Y-6319698D01*
X6086848Y-6319698D02*
X6048753Y-6319698D01*
X6048753Y-6319698D02*
X6029706Y-6329222D01*
X6029706Y-6329222D02*
X6020182Y-6338746D01*
X6020182Y-6338746D02*
X6010658Y-6357793D01*
X6010658Y-6357793D02*
X6010658Y-6395888D01*
X6010658Y-6395888D02*
X6020182Y-6414936D01*
X6020182Y-6414936D02*
X6029706Y-6424460D01*
X6029706Y-6424460D02*
X6048753Y-6433984D01*
X6048753Y-6433984D02*
X6086848Y-6433984D01*
X6086848Y-6433984D02*
X6105896Y-6424460D01*
X6105896Y-6424460D02*
X6115420Y-6414936D01*
X6115420Y-6414936D02*
X6124944Y-6395888D01*
X6124944Y-6395888D02*
X6124944Y-6357793D01*
X6124944Y-6357793D02*
X6115420Y-6338746D01*
X6115420Y-6338746D02*
X6105896Y-6329222D01*
X6105896Y-6329222D02*
X6086848Y-6319698D01*
X6201134Y-6233984D02*
X6201134Y-6272079D01*
X6277325Y-6233984D02*
X6277325Y-6272079D01*
X6572563Y-6510174D02*
X6563039Y-6500650D01*
X6563039Y-6500650D02*
X6543991Y-6472079D01*
X6543991Y-6472079D02*
X6534468Y-6453031D01*
X6534468Y-6453031D02*
X6524944Y-6424460D01*
X6524944Y-6424460D02*
X6515420Y-6376841D01*
X6515420Y-6376841D02*
X6515420Y-6338746D01*
X6515420Y-6338746D02*
X6524944Y-6291127D01*
X6524944Y-6291127D02*
X6534468Y-6262555D01*
X6534468Y-6262555D02*
X6543991Y-6243508D01*
X6543991Y-6243508D02*
X6563039Y-6214936D01*
X6563039Y-6214936D02*
X6572563Y-6205412D01*
X6629706Y-6233984D02*
X6763039Y-6233984D01*
X6763039Y-6233984D02*
X6677325Y-6433984D01*
X6943991Y-6433984D02*
X6829706Y-6433984D01*
X6886848Y-6433984D02*
X6886848Y-6233984D01*
X6886848Y-6233984D02*
X6867801Y-6262555D01*
X6867801Y-6262555D02*
X6848753Y-6281603D01*
X6848753Y-6281603D02*
X6829706Y-6291127D01*
X7182087Y-6433984D02*
X7182087Y-6233984D01*
X7267801Y-6433984D02*
X7267801Y-6329222D01*
X7267801Y-6329222D02*
X7258277Y-6310174D01*
X7258277Y-6310174D02*
X7239230Y-6300650D01*
X7239230Y-6300650D02*
X7210658Y-6300650D01*
X7210658Y-6300650D02*
X7191610Y-6310174D01*
X7191610Y-6310174D02*
X7182087Y-6319698D01*
X7391610Y-6433984D02*
X7372563Y-6424460D01*
X7372563Y-6424460D02*
X7363039Y-6414936D01*
X7363039Y-6414936D02*
X7353515Y-6395888D01*
X7353515Y-6395888D02*
X7353515Y-6338746D01*
X7353515Y-6338746D02*
X7363039Y-6319698D01*
X7363039Y-6319698D02*
X7372563Y-6310174D01*
X7372563Y-6310174D02*
X7391610Y-6300650D01*
X7391610Y-6300650D02*
X7420182Y-6300650D01*
X7420182Y-6300650D02*
X7439230Y-6310174D01*
X7439230Y-6310174D02*
X7448753Y-6319698D01*
X7448753Y-6319698D02*
X7458277Y-6338746D01*
X7458277Y-6338746D02*
X7458277Y-6395888D01*
X7458277Y-6395888D02*
X7448753Y-6414936D01*
X7448753Y-6414936D02*
X7439230Y-6424460D01*
X7439230Y-6424460D02*
X7420182Y-6433984D01*
X7420182Y-6433984D02*
X7391610Y-6433984D01*
X7572563Y-6433984D02*
X7553515Y-6424460D01*
X7553515Y-6424460D02*
X7543991Y-6405412D01*
X7543991Y-6405412D02*
X7543991Y-6233984D01*
X7724944Y-6424460D02*
X7705896Y-6433984D01*
X7705896Y-6433984D02*
X7667801Y-6433984D01*
X7667801Y-6433984D02*
X7648753Y-6424460D01*
X7648753Y-6424460D02*
X7639230Y-6405412D01*
X7639230Y-6405412D02*
X7639230Y-6329222D01*
X7639230Y-6329222D02*
X7648753Y-6310174D01*
X7648753Y-6310174D02*
X7667801Y-6300650D01*
X7667801Y-6300650D02*
X7705896Y-6300650D01*
X7705896Y-6300650D02*
X7724944Y-6310174D01*
X7724944Y-6310174D02*
X7734468Y-6329222D01*
X7734468Y-6329222D02*
X7734468Y-6348269D01*
X7734468Y-6348269D02*
X7639230Y-6367317D01*
X7810658Y-6424460D02*
X7829706Y-6433984D01*
X7829706Y-6433984D02*
X7867801Y-6433984D01*
X7867801Y-6433984D02*
X7886849Y-6424460D01*
X7886849Y-6424460D02*
X7896372Y-6405412D01*
X7896372Y-6405412D02*
X7896372Y-6395888D01*
X7896372Y-6395888D02*
X7886849Y-6376841D01*
X7886849Y-6376841D02*
X7867801Y-6367317D01*
X7867801Y-6367317D02*
X7839230Y-6367317D01*
X7839230Y-6367317D02*
X7820182Y-6357793D01*
X7820182Y-6357793D02*
X7810658Y-6338746D01*
X7810658Y-6338746D02*
X7810658Y-6329222D01*
X7810658Y-6329222D02*
X7820182Y-6310174D01*
X7820182Y-6310174D02*
X7839230Y-6300650D01*
X7839230Y-6300650D02*
X7867801Y-6300650D01*
X7867801Y-6300650D02*
X7886849Y-6310174D01*
X7963039Y-6510174D02*
X7972563Y-6500650D01*
X7972563Y-6500650D02*
X7991611Y-6472079D01*
X7991611Y-6472079D02*
X8001134Y-6453031D01*
X8001134Y-6453031D02*
X8010658Y-6424460D01*
X8010658Y-6424460D02*
X8020182Y-6376841D01*
X8020182Y-6376841D02*
X8020182Y-6338746D01*
X8020182Y-6338746D02*
X8010658Y-6291127D01*
X8010658Y-6291127D02*
X8001134Y-6262555D01*
X8001134Y-6262555D02*
X7991611Y-6243508D01*
X7991611Y-6243508D02*
X7972563Y-6214936D01*
X7972563Y-6214936D02*
X7963039Y-6205412D01*
M02*
