%TF.GenerationSoftware,KiCad,Pcbnew,8.0.2*%
%TF.CreationDate,2024-05-05T20:12:36+02:00*%
%TF.ProjectId,sensor_board_voc_temp,73656e73-6f72-45f6-926f-6172645f766f,A*%
%TF.SameCoordinates,Original*%
%TF.FileFunction,Drillmap*%
%TF.FilePolarity,Positive*%
%FSLAX45Y45*%
G04 Gerber Fmt 4.5, Leading zero omitted, Abs format (unit mm)*
G04 Created by KiCad (PCBNEW 8.0.2) date 2024-05-05 20:12:36*
%MOMM*%
%LPD*%
G01*
G04 APERTURE LIST*
%ADD10C,0.050000*%
%ADD11C,0.200000*%
%ADD12C,0.320000*%
G04 APERTURE END LIST*
D10*
X6800000Y-3000000D02*
G75*
G02*
X7000000Y-3200000I0J-200000D01*
G01*
X6303889Y-5239213D02*
X6440785Y-5375463D01*
X6840173Y-5375011D01*
X6882322Y-5332322D01*
X6886111Y-5329213D01*
X6895123Y-5325480D01*
X6904877Y-5325480D01*
X6913889Y-5329213D01*
X6920787Y-5336111D01*
X6924520Y-5345123D01*
X6924520Y-5354877D01*
X6920787Y-5363889D01*
X6867678Y-5417678D01*
X6863890Y-5420786D01*
X6863889Y-5420787D01*
X6854877Y-5424520D01*
X6430000Y-5425000D01*
X6425123Y-5424520D01*
X6416111Y-5420787D01*
X6416090Y-5420766D01*
X6272322Y-5277678D01*
X6269213Y-5273889D01*
X6265480Y-5264877D01*
X6265480Y-5255123D01*
X6269213Y-5246111D01*
X6276111Y-5239213D01*
X6285123Y-5235480D01*
X6294877Y-5235480D01*
X6303889Y-5239213D01*
X7000000Y-5500000D02*
G75*
G02*
X6800000Y-5700000I-200000J0D01*
G01*
X6854877Y-4725480D02*
X6863889Y-4729213D01*
X6863897Y-4729221D01*
X6917678Y-4782322D01*
X6920787Y-4786111D01*
X6924520Y-4795123D01*
X6924520Y-4804877D01*
X6920787Y-4813889D01*
X6913889Y-4820787D01*
X6904877Y-4824520D01*
X6895123Y-4824520D01*
X6886111Y-4820787D01*
X6839269Y-4774537D01*
X6439739Y-4774989D01*
X6307678Y-4907678D01*
X6303889Y-4910787D01*
X6294877Y-4914520D01*
X6285123Y-4914520D01*
X6276111Y-4910787D01*
X6269213Y-4903889D01*
X6265480Y-4894877D01*
X6265480Y-4885123D01*
X6269213Y-4876111D01*
X6412322Y-4732322D01*
X6416110Y-4729214D01*
X6416111Y-4729213D01*
X6425123Y-4725480D01*
X6850000Y-4725000D01*
X6854877Y-4725480D01*
X3000000Y-3200000D02*
G75*
G02*
X3200000Y-3000000I200000J0D01*
G01*
X3000000Y-5500000D02*
X3000000Y-3200000D01*
X7000000Y-3200000D02*
X7000000Y-5500000D01*
X3200000Y-5700000D02*
G75*
G02*
X3000000Y-5500000I0J200000D01*
G01*
X3200000Y-3000000D02*
X6800000Y-3000000D01*
X6800000Y-5700000D02*
X3200000Y-5700000D01*
D11*
D12*
X3190000Y-3190000D02*
X3510000Y-3510000D01*
X3510000Y-3190000D02*
X3190000Y-3510000D01*
X3190000Y-5190000D02*
X3510000Y-5510000D01*
X3510000Y-5190000D02*
X3190000Y-5510000D01*
D11*
X3258277Y-6013984D02*
X3258277Y-5813984D01*
X3258277Y-5813984D02*
X3305896Y-5813984D01*
X3305896Y-5813984D02*
X3334467Y-5823508D01*
X3334467Y-5823508D02*
X3353515Y-5842555D01*
X3353515Y-5842555D02*
X3363039Y-5861603D01*
X3363039Y-5861603D02*
X3372562Y-5899698D01*
X3372562Y-5899698D02*
X3372562Y-5928269D01*
X3372562Y-5928269D02*
X3363039Y-5966365D01*
X3363039Y-5966365D02*
X3353515Y-5985412D01*
X3353515Y-5985412D02*
X3334467Y-6004460D01*
X3334467Y-6004460D02*
X3305896Y-6013984D01*
X3305896Y-6013984D02*
X3258277Y-6013984D01*
X3458277Y-6013984D02*
X3458277Y-5880650D01*
X3458277Y-5918746D02*
X3467801Y-5899698D01*
X3467801Y-5899698D02*
X3477324Y-5890174D01*
X3477324Y-5890174D02*
X3496372Y-5880650D01*
X3496372Y-5880650D02*
X3515420Y-5880650D01*
X3582086Y-6013984D02*
X3582086Y-5880650D01*
X3582086Y-5813984D02*
X3572562Y-5823508D01*
X3572562Y-5823508D02*
X3582086Y-5833031D01*
X3582086Y-5833031D02*
X3591610Y-5823508D01*
X3591610Y-5823508D02*
X3582086Y-5813984D01*
X3582086Y-5813984D02*
X3582086Y-5833031D01*
X3705896Y-6013984D02*
X3686848Y-6004460D01*
X3686848Y-6004460D02*
X3677324Y-5985412D01*
X3677324Y-5985412D02*
X3677324Y-5813984D01*
X3810658Y-6013984D02*
X3791610Y-6004460D01*
X3791610Y-6004460D02*
X3782086Y-5985412D01*
X3782086Y-5985412D02*
X3782086Y-5813984D01*
X4039229Y-6013984D02*
X4039229Y-5813984D01*
X4039229Y-5813984D02*
X4105896Y-5956841D01*
X4105896Y-5956841D02*
X4172562Y-5813984D01*
X4172562Y-5813984D02*
X4172562Y-6013984D01*
X4353515Y-6013984D02*
X4353515Y-5909222D01*
X4353515Y-5909222D02*
X4343991Y-5890174D01*
X4343991Y-5890174D02*
X4324944Y-5880650D01*
X4324944Y-5880650D02*
X4286848Y-5880650D01*
X4286848Y-5880650D02*
X4267801Y-5890174D01*
X4353515Y-6004460D02*
X4334467Y-6013984D01*
X4334467Y-6013984D02*
X4286848Y-6013984D01*
X4286848Y-6013984D02*
X4267801Y-6004460D01*
X4267801Y-6004460D02*
X4258277Y-5985412D01*
X4258277Y-5985412D02*
X4258277Y-5966365D01*
X4258277Y-5966365D02*
X4267801Y-5947317D01*
X4267801Y-5947317D02*
X4286848Y-5937793D01*
X4286848Y-5937793D02*
X4334467Y-5937793D01*
X4334467Y-5937793D02*
X4353515Y-5928269D01*
X4448753Y-5880650D02*
X4448753Y-6080650D01*
X4448753Y-5890174D02*
X4467801Y-5880650D01*
X4467801Y-5880650D02*
X4505896Y-5880650D01*
X4505896Y-5880650D02*
X4524944Y-5890174D01*
X4524944Y-5890174D02*
X4534467Y-5899698D01*
X4534467Y-5899698D02*
X4543991Y-5918746D01*
X4543991Y-5918746D02*
X4543991Y-5975888D01*
X4543991Y-5975888D02*
X4534467Y-5994936D01*
X4534467Y-5994936D02*
X4524944Y-6004460D01*
X4524944Y-6004460D02*
X4505896Y-6013984D01*
X4505896Y-6013984D02*
X4467801Y-6013984D01*
X4467801Y-6013984D02*
X4448753Y-6004460D01*
X4629705Y-5994936D02*
X4639229Y-6004460D01*
X4639229Y-6004460D02*
X4629705Y-6013984D01*
X4629705Y-6013984D02*
X4620182Y-6004460D01*
X4620182Y-6004460D02*
X4629705Y-5994936D01*
X4629705Y-5994936D02*
X4629705Y-6013984D01*
X4629705Y-5890174D02*
X4639229Y-5899698D01*
X4639229Y-5899698D02*
X4629705Y-5909222D01*
X4629705Y-5909222D02*
X4620182Y-5899698D01*
X4620182Y-5899698D02*
X4629705Y-5890174D01*
X4629705Y-5890174D02*
X4629705Y-5909222D01*
X2797500Y-6242500D02*
X2997500Y-6442500D01*
X2997500Y-6242500D02*
X2797500Y-6442500D01*
X3239229Y-6233984D02*
X3363039Y-6233984D01*
X3363039Y-6233984D02*
X3296372Y-6310174D01*
X3296372Y-6310174D02*
X3324943Y-6310174D01*
X3324943Y-6310174D02*
X3343991Y-6319698D01*
X3343991Y-6319698D02*
X3353515Y-6329222D01*
X3353515Y-6329222D02*
X3363039Y-6348269D01*
X3363039Y-6348269D02*
X3363039Y-6395888D01*
X3363039Y-6395888D02*
X3353515Y-6414936D01*
X3353515Y-6414936D02*
X3343991Y-6424460D01*
X3343991Y-6424460D02*
X3324943Y-6433984D01*
X3324943Y-6433984D02*
X3267801Y-6433984D01*
X3267801Y-6433984D02*
X3248753Y-6424460D01*
X3248753Y-6424460D02*
X3239229Y-6414936D01*
X3448753Y-6414936D02*
X3458277Y-6424460D01*
X3458277Y-6424460D02*
X3448753Y-6433984D01*
X3448753Y-6433984D02*
X3439229Y-6424460D01*
X3439229Y-6424460D02*
X3448753Y-6414936D01*
X3448753Y-6414936D02*
X3448753Y-6433984D01*
X3534467Y-6253031D02*
X3543991Y-6243508D01*
X3543991Y-6243508D02*
X3563039Y-6233984D01*
X3563039Y-6233984D02*
X3610658Y-6233984D01*
X3610658Y-6233984D02*
X3629705Y-6243508D01*
X3629705Y-6243508D02*
X3639229Y-6253031D01*
X3639229Y-6253031D02*
X3648753Y-6272079D01*
X3648753Y-6272079D02*
X3648753Y-6291127D01*
X3648753Y-6291127D02*
X3639229Y-6319698D01*
X3639229Y-6319698D02*
X3524943Y-6433984D01*
X3524943Y-6433984D02*
X3648753Y-6433984D01*
X3772562Y-6233984D02*
X3791610Y-6233984D01*
X3791610Y-6233984D02*
X3810658Y-6243508D01*
X3810658Y-6243508D02*
X3820182Y-6253031D01*
X3820182Y-6253031D02*
X3829705Y-6272079D01*
X3829705Y-6272079D02*
X3839229Y-6310174D01*
X3839229Y-6310174D02*
X3839229Y-6357793D01*
X3839229Y-6357793D02*
X3829705Y-6395888D01*
X3829705Y-6395888D02*
X3820182Y-6414936D01*
X3820182Y-6414936D02*
X3810658Y-6424460D01*
X3810658Y-6424460D02*
X3791610Y-6433984D01*
X3791610Y-6433984D02*
X3772562Y-6433984D01*
X3772562Y-6433984D02*
X3753515Y-6424460D01*
X3753515Y-6424460D02*
X3743991Y-6414936D01*
X3743991Y-6414936D02*
X3734467Y-6395888D01*
X3734467Y-6395888D02*
X3724943Y-6357793D01*
X3724943Y-6357793D02*
X3724943Y-6310174D01*
X3724943Y-6310174D02*
X3734467Y-6272079D01*
X3734467Y-6272079D02*
X3743991Y-6253031D01*
X3743991Y-6253031D02*
X3753515Y-6243508D01*
X3753515Y-6243508D02*
X3772562Y-6233984D01*
X3963039Y-6233984D02*
X3982086Y-6233984D01*
X3982086Y-6233984D02*
X4001134Y-6243508D01*
X4001134Y-6243508D02*
X4010658Y-6253031D01*
X4010658Y-6253031D02*
X4020182Y-6272079D01*
X4020182Y-6272079D02*
X4029705Y-6310174D01*
X4029705Y-6310174D02*
X4029705Y-6357793D01*
X4029705Y-6357793D02*
X4020182Y-6395888D01*
X4020182Y-6395888D02*
X4010658Y-6414936D01*
X4010658Y-6414936D02*
X4001134Y-6424460D01*
X4001134Y-6424460D02*
X3982086Y-6433984D01*
X3982086Y-6433984D02*
X3963039Y-6433984D01*
X3963039Y-6433984D02*
X3943991Y-6424460D01*
X3943991Y-6424460D02*
X3934467Y-6414936D01*
X3934467Y-6414936D02*
X3924943Y-6395888D01*
X3924943Y-6395888D02*
X3915420Y-6357793D01*
X3915420Y-6357793D02*
X3915420Y-6310174D01*
X3915420Y-6310174D02*
X3924943Y-6272079D01*
X3924943Y-6272079D02*
X3934467Y-6253031D01*
X3934467Y-6253031D02*
X3943991Y-6243508D01*
X3943991Y-6243508D02*
X3963039Y-6233984D01*
X4115420Y-6433984D02*
X4115420Y-6300650D01*
X4115420Y-6319698D02*
X4124943Y-6310174D01*
X4124943Y-6310174D02*
X4143991Y-6300650D01*
X4143991Y-6300650D02*
X4172563Y-6300650D01*
X4172563Y-6300650D02*
X4191610Y-6310174D01*
X4191610Y-6310174D02*
X4201134Y-6329222D01*
X4201134Y-6329222D02*
X4201134Y-6433984D01*
X4201134Y-6329222D02*
X4210658Y-6310174D01*
X4210658Y-6310174D02*
X4229705Y-6300650D01*
X4229705Y-6300650D02*
X4258277Y-6300650D01*
X4258277Y-6300650D02*
X4277325Y-6310174D01*
X4277325Y-6310174D02*
X4286848Y-6329222D01*
X4286848Y-6329222D02*
X4286848Y-6433984D01*
X4382086Y-6433984D02*
X4382086Y-6300650D01*
X4382086Y-6319698D02*
X4391610Y-6310174D01*
X4391610Y-6310174D02*
X4410658Y-6300650D01*
X4410658Y-6300650D02*
X4439229Y-6300650D01*
X4439229Y-6300650D02*
X4458277Y-6310174D01*
X4458277Y-6310174D02*
X4467801Y-6329222D01*
X4467801Y-6329222D02*
X4467801Y-6433984D01*
X4467801Y-6329222D02*
X4477325Y-6310174D01*
X4477325Y-6310174D02*
X4496372Y-6300650D01*
X4496372Y-6300650D02*
X4524944Y-6300650D01*
X4524944Y-6300650D02*
X4543991Y-6310174D01*
X4543991Y-6310174D02*
X4553515Y-6329222D01*
X4553515Y-6329222D02*
X4553515Y-6433984D01*
X4943991Y-6224460D02*
X4772563Y-6481603D01*
X5201134Y-6233984D02*
X5220182Y-6233984D01*
X5220182Y-6233984D02*
X5239229Y-6243508D01*
X5239229Y-6243508D02*
X5248753Y-6253031D01*
X5248753Y-6253031D02*
X5258277Y-6272079D01*
X5258277Y-6272079D02*
X5267801Y-6310174D01*
X5267801Y-6310174D02*
X5267801Y-6357793D01*
X5267801Y-6357793D02*
X5258277Y-6395888D01*
X5258277Y-6395888D02*
X5248753Y-6414936D01*
X5248753Y-6414936D02*
X5239229Y-6424460D01*
X5239229Y-6424460D02*
X5220182Y-6433984D01*
X5220182Y-6433984D02*
X5201134Y-6433984D01*
X5201134Y-6433984D02*
X5182087Y-6424460D01*
X5182087Y-6424460D02*
X5172563Y-6414936D01*
X5172563Y-6414936D02*
X5163039Y-6395888D01*
X5163039Y-6395888D02*
X5153515Y-6357793D01*
X5153515Y-6357793D02*
X5153515Y-6310174D01*
X5153515Y-6310174D02*
X5163039Y-6272079D01*
X5163039Y-6272079D02*
X5172563Y-6253031D01*
X5172563Y-6253031D02*
X5182087Y-6243508D01*
X5182087Y-6243508D02*
X5201134Y-6233984D01*
X5353515Y-6414936D02*
X5363039Y-6424460D01*
X5363039Y-6424460D02*
X5353515Y-6433984D01*
X5353515Y-6433984D02*
X5343991Y-6424460D01*
X5343991Y-6424460D02*
X5353515Y-6414936D01*
X5353515Y-6414936D02*
X5353515Y-6433984D01*
X5553515Y-6433984D02*
X5439229Y-6433984D01*
X5496372Y-6433984D02*
X5496372Y-6233984D01*
X5496372Y-6233984D02*
X5477325Y-6262555D01*
X5477325Y-6262555D02*
X5458277Y-6281603D01*
X5458277Y-6281603D02*
X5439229Y-6291127D01*
X5629706Y-6253031D02*
X5639229Y-6243508D01*
X5639229Y-6243508D02*
X5658277Y-6233984D01*
X5658277Y-6233984D02*
X5705896Y-6233984D01*
X5705896Y-6233984D02*
X5724944Y-6243508D01*
X5724944Y-6243508D02*
X5734467Y-6253031D01*
X5734467Y-6253031D02*
X5743991Y-6272079D01*
X5743991Y-6272079D02*
X5743991Y-6291127D01*
X5743991Y-6291127D02*
X5734467Y-6319698D01*
X5734467Y-6319698D02*
X5620182Y-6433984D01*
X5620182Y-6433984D02*
X5743991Y-6433984D01*
X5915420Y-6233984D02*
X5877325Y-6233984D01*
X5877325Y-6233984D02*
X5858277Y-6243508D01*
X5858277Y-6243508D02*
X5848753Y-6253031D01*
X5848753Y-6253031D02*
X5829706Y-6281603D01*
X5829706Y-6281603D02*
X5820182Y-6319698D01*
X5820182Y-6319698D02*
X5820182Y-6395888D01*
X5820182Y-6395888D02*
X5829706Y-6414936D01*
X5829706Y-6414936D02*
X5839229Y-6424460D01*
X5839229Y-6424460D02*
X5858277Y-6433984D01*
X5858277Y-6433984D02*
X5896372Y-6433984D01*
X5896372Y-6433984D02*
X5915420Y-6424460D01*
X5915420Y-6424460D02*
X5924944Y-6414936D01*
X5924944Y-6414936D02*
X5934467Y-6395888D01*
X5934467Y-6395888D02*
X5934467Y-6348269D01*
X5934467Y-6348269D02*
X5924944Y-6329222D01*
X5924944Y-6329222D02*
X5915420Y-6319698D01*
X5915420Y-6319698D02*
X5896372Y-6310174D01*
X5896372Y-6310174D02*
X5858277Y-6310174D01*
X5858277Y-6310174D02*
X5839229Y-6319698D01*
X5839229Y-6319698D02*
X5829706Y-6329222D01*
X5829706Y-6329222D02*
X5820182Y-6348269D01*
X6058277Y-6233984D02*
X6077325Y-6233984D01*
X6077325Y-6233984D02*
X6096372Y-6243508D01*
X6096372Y-6243508D02*
X6105896Y-6253031D01*
X6105896Y-6253031D02*
X6115420Y-6272079D01*
X6115420Y-6272079D02*
X6124944Y-6310174D01*
X6124944Y-6310174D02*
X6124944Y-6357793D01*
X6124944Y-6357793D02*
X6115420Y-6395888D01*
X6115420Y-6395888D02*
X6105896Y-6414936D01*
X6105896Y-6414936D02*
X6096372Y-6424460D01*
X6096372Y-6424460D02*
X6077325Y-6433984D01*
X6077325Y-6433984D02*
X6058277Y-6433984D01*
X6058277Y-6433984D02*
X6039229Y-6424460D01*
X6039229Y-6424460D02*
X6029706Y-6414936D01*
X6029706Y-6414936D02*
X6020182Y-6395888D01*
X6020182Y-6395888D02*
X6010658Y-6357793D01*
X6010658Y-6357793D02*
X6010658Y-6310174D01*
X6010658Y-6310174D02*
X6020182Y-6272079D01*
X6020182Y-6272079D02*
X6029706Y-6253031D01*
X6029706Y-6253031D02*
X6039229Y-6243508D01*
X6039229Y-6243508D02*
X6058277Y-6233984D01*
X6201134Y-6233984D02*
X6201134Y-6272079D01*
X6277325Y-6233984D02*
X6277325Y-6272079D01*
X6572563Y-6510174D02*
X6563039Y-6500650D01*
X6563039Y-6500650D02*
X6543991Y-6472079D01*
X6543991Y-6472079D02*
X6534468Y-6453031D01*
X6534468Y-6453031D02*
X6524944Y-6424460D01*
X6524944Y-6424460D02*
X6515420Y-6376841D01*
X6515420Y-6376841D02*
X6515420Y-6338746D01*
X6515420Y-6338746D02*
X6524944Y-6291127D01*
X6524944Y-6291127D02*
X6534468Y-6262555D01*
X6534468Y-6262555D02*
X6543991Y-6243508D01*
X6543991Y-6243508D02*
X6563039Y-6214936D01*
X6563039Y-6214936D02*
X6572563Y-6205412D01*
X6639229Y-6253031D02*
X6648753Y-6243508D01*
X6648753Y-6243508D02*
X6667801Y-6233984D01*
X6667801Y-6233984D02*
X6715420Y-6233984D01*
X6715420Y-6233984D02*
X6734468Y-6243508D01*
X6734468Y-6243508D02*
X6743991Y-6253031D01*
X6743991Y-6253031D02*
X6753515Y-6272079D01*
X6753515Y-6272079D02*
X6753515Y-6291127D01*
X6753515Y-6291127D02*
X6743991Y-6319698D01*
X6743991Y-6319698D02*
X6629706Y-6433984D01*
X6629706Y-6433984D02*
X6753515Y-6433984D01*
X6991610Y-6433984D02*
X6991610Y-6233984D01*
X7077325Y-6433984D02*
X7077325Y-6329222D01*
X7077325Y-6329222D02*
X7067801Y-6310174D01*
X7067801Y-6310174D02*
X7048753Y-6300650D01*
X7048753Y-6300650D02*
X7020182Y-6300650D01*
X7020182Y-6300650D02*
X7001134Y-6310174D01*
X7001134Y-6310174D02*
X6991610Y-6319698D01*
X7201134Y-6433984D02*
X7182087Y-6424460D01*
X7182087Y-6424460D02*
X7172563Y-6414936D01*
X7172563Y-6414936D02*
X7163039Y-6395888D01*
X7163039Y-6395888D02*
X7163039Y-6338746D01*
X7163039Y-6338746D02*
X7172563Y-6319698D01*
X7172563Y-6319698D02*
X7182087Y-6310174D01*
X7182087Y-6310174D02*
X7201134Y-6300650D01*
X7201134Y-6300650D02*
X7229706Y-6300650D01*
X7229706Y-6300650D02*
X7248753Y-6310174D01*
X7248753Y-6310174D02*
X7258277Y-6319698D01*
X7258277Y-6319698D02*
X7267801Y-6338746D01*
X7267801Y-6338746D02*
X7267801Y-6395888D01*
X7267801Y-6395888D02*
X7258277Y-6414936D01*
X7258277Y-6414936D02*
X7248753Y-6424460D01*
X7248753Y-6424460D02*
X7229706Y-6433984D01*
X7229706Y-6433984D02*
X7201134Y-6433984D01*
X7382087Y-6433984D02*
X7363039Y-6424460D01*
X7363039Y-6424460D02*
X7353515Y-6405412D01*
X7353515Y-6405412D02*
X7353515Y-6233984D01*
X7534468Y-6424460D02*
X7515420Y-6433984D01*
X7515420Y-6433984D02*
X7477325Y-6433984D01*
X7477325Y-6433984D02*
X7458277Y-6424460D01*
X7458277Y-6424460D02*
X7448753Y-6405412D01*
X7448753Y-6405412D02*
X7448753Y-6329222D01*
X7448753Y-6329222D02*
X7458277Y-6310174D01*
X7458277Y-6310174D02*
X7477325Y-6300650D01*
X7477325Y-6300650D02*
X7515420Y-6300650D01*
X7515420Y-6300650D02*
X7534468Y-6310174D01*
X7534468Y-6310174D02*
X7543991Y-6329222D01*
X7543991Y-6329222D02*
X7543991Y-6348269D01*
X7543991Y-6348269D02*
X7448753Y-6367317D01*
X7620182Y-6424460D02*
X7639230Y-6433984D01*
X7639230Y-6433984D02*
X7677325Y-6433984D01*
X7677325Y-6433984D02*
X7696372Y-6424460D01*
X7696372Y-6424460D02*
X7705896Y-6405412D01*
X7705896Y-6405412D02*
X7705896Y-6395888D01*
X7705896Y-6395888D02*
X7696372Y-6376841D01*
X7696372Y-6376841D02*
X7677325Y-6367317D01*
X7677325Y-6367317D02*
X7648753Y-6367317D01*
X7648753Y-6367317D02*
X7629706Y-6357793D01*
X7629706Y-6357793D02*
X7620182Y-6338746D01*
X7620182Y-6338746D02*
X7620182Y-6329222D01*
X7620182Y-6329222D02*
X7629706Y-6310174D01*
X7629706Y-6310174D02*
X7648753Y-6300650D01*
X7648753Y-6300650D02*
X7677325Y-6300650D01*
X7677325Y-6300650D02*
X7696372Y-6310174D01*
X7772563Y-6510174D02*
X7782087Y-6500650D01*
X7782087Y-6500650D02*
X7801134Y-6472079D01*
X7801134Y-6472079D02*
X7810658Y-6453031D01*
X7810658Y-6453031D02*
X7820182Y-6424460D01*
X7820182Y-6424460D02*
X7829706Y-6376841D01*
X7829706Y-6376841D02*
X7829706Y-6338746D01*
X7829706Y-6338746D02*
X7820182Y-6291127D01*
X7820182Y-6291127D02*
X7810658Y-6262555D01*
X7810658Y-6262555D02*
X7801134Y-6243508D01*
X7801134Y-6243508D02*
X7782087Y-6214936D01*
X7782087Y-6214936D02*
X7772563Y-6205412D01*
X8134468Y-6510174D02*
X8124944Y-6500650D01*
X8124944Y-6500650D02*
X8105896Y-6472079D01*
X8105896Y-6472079D02*
X8096372Y-6453031D01*
X8096372Y-6453031D02*
X8086849Y-6424460D01*
X8086849Y-6424460D02*
X8077325Y-6376841D01*
X8077325Y-6376841D02*
X8077325Y-6338746D01*
X8077325Y-6338746D02*
X8086849Y-6291127D01*
X8086849Y-6291127D02*
X8096372Y-6262555D01*
X8096372Y-6262555D02*
X8105896Y-6243508D01*
X8105896Y-6243508D02*
X8124944Y-6214936D01*
X8124944Y-6214936D02*
X8134468Y-6205412D01*
X8210658Y-6300650D02*
X8210658Y-6433984D01*
X8210658Y-6319698D02*
X8220182Y-6310174D01*
X8220182Y-6310174D02*
X8239230Y-6300650D01*
X8239230Y-6300650D02*
X8267801Y-6300650D01*
X8267801Y-6300650D02*
X8286849Y-6310174D01*
X8286849Y-6310174D02*
X8296372Y-6329222D01*
X8296372Y-6329222D02*
X8296372Y-6433984D01*
X8420182Y-6433984D02*
X8401134Y-6424460D01*
X8401134Y-6424460D02*
X8391611Y-6414936D01*
X8391611Y-6414936D02*
X8382087Y-6395888D01*
X8382087Y-6395888D02*
X8382087Y-6338746D01*
X8382087Y-6338746D02*
X8391611Y-6319698D01*
X8391611Y-6319698D02*
X8401134Y-6310174D01*
X8401134Y-6310174D02*
X8420182Y-6300650D01*
X8420182Y-6300650D02*
X8448754Y-6300650D01*
X8448754Y-6300650D02*
X8467801Y-6310174D01*
X8467801Y-6310174D02*
X8477325Y-6319698D01*
X8477325Y-6319698D02*
X8486849Y-6338746D01*
X8486849Y-6338746D02*
X8486849Y-6395888D01*
X8486849Y-6395888D02*
X8477325Y-6414936D01*
X8477325Y-6414936D02*
X8467801Y-6424460D01*
X8467801Y-6424460D02*
X8448754Y-6433984D01*
X8448754Y-6433984D02*
X8420182Y-6433984D01*
X8543992Y-6300650D02*
X8620182Y-6300650D01*
X8572563Y-6233984D02*
X8572563Y-6405412D01*
X8572563Y-6405412D02*
X8582087Y-6424460D01*
X8582087Y-6424460D02*
X8601134Y-6433984D01*
X8601134Y-6433984D02*
X8620182Y-6433984D01*
X8839230Y-6300650D02*
X8839230Y-6500650D01*
X8839230Y-6310174D02*
X8858277Y-6300650D01*
X8858277Y-6300650D02*
X8896373Y-6300650D01*
X8896373Y-6300650D02*
X8915420Y-6310174D01*
X8915420Y-6310174D02*
X8924944Y-6319698D01*
X8924944Y-6319698D02*
X8934468Y-6338746D01*
X8934468Y-6338746D02*
X8934468Y-6395888D01*
X8934468Y-6395888D02*
X8924944Y-6414936D01*
X8924944Y-6414936D02*
X8915420Y-6424460D01*
X8915420Y-6424460D02*
X8896373Y-6433984D01*
X8896373Y-6433984D02*
X8858277Y-6433984D01*
X8858277Y-6433984D02*
X8839230Y-6424460D01*
X9048754Y-6433984D02*
X9029706Y-6424460D01*
X9029706Y-6424460D02*
X9020182Y-6405412D01*
X9020182Y-6405412D02*
X9020182Y-6233984D01*
X9210658Y-6433984D02*
X9210658Y-6329222D01*
X9210658Y-6329222D02*
X9201135Y-6310174D01*
X9201135Y-6310174D02*
X9182087Y-6300650D01*
X9182087Y-6300650D02*
X9143992Y-6300650D01*
X9143992Y-6300650D02*
X9124944Y-6310174D01*
X9210658Y-6424460D02*
X9191611Y-6433984D01*
X9191611Y-6433984D02*
X9143992Y-6433984D01*
X9143992Y-6433984D02*
X9124944Y-6424460D01*
X9124944Y-6424460D02*
X9115420Y-6405412D01*
X9115420Y-6405412D02*
X9115420Y-6386365D01*
X9115420Y-6386365D02*
X9124944Y-6367317D01*
X9124944Y-6367317D02*
X9143992Y-6357793D01*
X9143992Y-6357793D02*
X9191611Y-6357793D01*
X9191611Y-6357793D02*
X9210658Y-6348269D01*
X9277325Y-6300650D02*
X9353515Y-6300650D01*
X9305896Y-6233984D02*
X9305896Y-6405412D01*
X9305896Y-6405412D02*
X9315420Y-6424460D01*
X9315420Y-6424460D02*
X9334468Y-6433984D01*
X9334468Y-6433984D02*
X9353515Y-6433984D01*
X9496373Y-6424460D02*
X9477325Y-6433984D01*
X9477325Y-6433984D02*
X9439230Y-6433984D01*
X9439230Y-6433984D02*
X9420182Y-6424460D01*
X9420182Y-6424460D02*
X9410658Y-6405412D01*
X9410658Y-6405412D02*
X9410658Y-6329222D01*
X9410658Y-6329222D02*
X9420182Y-6310174D01*
X9420182Y-6310174D02*
X9439230Y-6300650D01*
X9439230Y-6300650D02*
X9477325Y-6300650D01*
X9477325Y-6300650D02*
X9496373Y-6310174D01*
X9496373Y-6310174D02*
X9505896Y-6329222D01*
X9505896Y-6329222D02*
X9505896Y-6348269D01*
X9505896Y-6348269D02*
X9410658Y-6367317D01*
X9677325Y-6433984D02*
X9677325Y-6233984D01*
X9677325Y-6424460D02*
X9658277Y-6433984D01*
X9658277Y-6433984D02*
X9620182Y-6433984D01*
X9620182Y-6433984D02*
X9601135Y-6424460D01*
X9601135Y-6424460D02*
X9591611Y-6414936D01*
X9591611Y-6414936D02*
X9582087Y-6395888D01*
X9582087Y-6395888D02*
X9582087Y-6338746D01*
X9582087Y-6338746D02*
X9591611Y-6319698D01*
X9591611Y-6319698D02*
X9601135Y-6310174D01*
X9601135Y-6310174D02*
X9620182Y-6300650D01*
X9620182Y-6300650D02*
X9658277Y-6300650D01*
X9658277Y-6300650D02*
X9677325Y-6310174D01*
X9753516Y-6510174D02*
X9763039Y-6500650D01*
X9763039Y-6500650D02*
X9782087Y-6472079D01*
X9782087Y-6472079D02*
X9791611Y-6453031D01*
X9791611Y-6453031D02*
X9801135Y-6424460D01*
X9801135Y-6424460D02*
X9810658Y-6376841D01*
X9810658Y-6376841D02*
X9810658Y-6338746D01*
X9810658Y-6338746D02*
X9801135Y-6291127D01*
X9801135Y-6291127D02*
X9791611Y-6262555D01*
X9791611Y-6262555D02*
X9782087Y-6243508D01*
X9782087Y-6243508D02*
X9763039Y-6214936D01*
X9763039Y-6214936D02*
X9753516Y-6205412D01*
M02*
