G04 #@! TF.GenerationSoftware,KiCad,Pcbnew,8.0.2*
G04 #@! TF.CreationDate,2024-05-05T20:12:28+02:00*
G04 #@! TF.ProjectId,sensor_board_voc_temp,73656e73-6f72-45f6-926f-6172645f766f,A*
G04 #@! TF.SameCoordinates,Original*
G04 #@! TF.FileFunction,Legend,Top*
G04 #@! TF.FilePolarity,Positive*
%FSLAX46Y46*%
G04 Gerber Fmt 4.6, Leading zero omitted, Abs format (unit mm)*
G04 Created by KiCad (PCBNEW 8.0.2) date 2024-05-05 20:12:28*
%MOMM*%
%LPD*%
G01*
G04 APERTURE LIST*
G04 Aperture macros list*
%AMRoundRect*
0 Rectangle with rounded corners*
0 $1 Rounding radius*
0 $2 $3 $4 $5 $6 $7 $8 $9 X,Y pos of 4 corners*
0 Add a 4 corners polygon primitive as box body*
4,1,4,$2,$3,$4,$5,$6,$7,$8,$9,$2,$3,0*
0 Add four circle primitives for the rounded corners*
1,1,$1+$1,$2,$3*
1,1,$1+$1,$4,$5*
1,1,$1+$1,$6,$7*
1,1,$1+$1,$8,$9*
0 Add four rect primitives between the rounded corners*
20,1,$1+$1,$2,$3,$4,$5,0*
20,1,$1+$1,$4,$5,$6,$7,0*
20,1,$1+$1,$6,$7,$8,$9,0*
20,1,$1+$1,$8,$9,$2,$3,0*%
%AMOutline5P*
0 Free polygon, 5 corners , with rotation*
0 The origin of the aperture is its center*
0 number of corners: always 5*
0 $1 to $10 corner X, Y*
0 $11 Rotation angle, in degrees counterclockwise*
0 create outline with 5 corners*
4,1,5,$1,$2,$3,$4,$5,$6,$7,$8,$9,$10,$1,$2,$11*%
%AMOutline6P*
0 Free polygon, 6 corners , with rotation*
0 The origin of the aperture is its center*
0 number of corners: always 6*
0 $1 to $12 corner X, Y*
0 $13 Rotation angle, in degrees counterclockwise*
0 create outline with 6 corners*
4,1,6,$1,$2,$3,$4,$5,$6,$7,$8,$9,$10,$11,$12,$1,$2,$13*%
%AMOutline7P*
0 Free polygon, 7 corners , with rotation*
0 The origin of the aperture is its center*
0 number of corners: always 7*
0 $1 to $14 corner X, Y*
0 $15 Rotation angle, in degrees counterclockwise*
0 create outline with 7 corners*
4,1,7,$1,$2,$3,$4,$5,$6,$7,$8,$9,$10,$11,$12,$13,$14,$1,$2,$15*%
%AMOutline8P*
0 Free polygon, 8 corners , with rotation*
0 The origin of the aperture is its center*
0 number of corners: always 8*
0 $1 to $16 corner X, Y*
0 $17 Rotation angle, in degrees counterclockwise*
0 create outline with 8 corners*
4,1,8,$1,$2,$3,$4,$5,$6,$7,$8,$9,$10,$11,$12,$13,$14,$15,$16,$1,$2,$17*%
G04 Aperture macros list end*
%ADD10C,0.150000*%
%ADD11C,0.120000*%
%ADD12RoundRect,0.200000X-1.250000X0.200000X-1.250000X-0.200000X1.250000X-0.200000X1.250000X0.200000X0*%
%ADD13RoundRect,0.250000X-1.650000X0.650000X-1.650000X-0.650000X1.650000X-0.650000X1.650000X0.650000X0*%
%ADD14RoundRect,0.250000X-1.000000X-0.650000X1.000000X-0.650000X1.000000X0.650000X-1.000000X0.650000X0*%
%ADD15RoundRect,0.200000X-0.200000X-0.275000X0.200000X-0.275000X0.200000X0.275000X-0.200000X0.275000X0*%
%ADD16C,1.500000*%
%ADD17RoundRect,0.225000X0.250000X-0.225000X0.250000X0.225000X-0.250000X0.225000X-0.250000X-0.225000X0*%
%ADD18RoundRect,0.250000X-0.475000X0.250000X-0.475000X-0.250000X0.475000X-0.250000X0.475000X0.250000X0*%
%ADD19RoundRect,0.200000X0.200000X0.275000X-0.200000X0.275000X-0.200000X-0.275000X0.200000X-0.275000X0*%
%ADD20RoundRect,0.150000X0.200000X-0.150000X0.200000X0.150000X-0.200000X0.150000X-0.200000X-0.150000X0*%
%ADD21RoundRect,0.150000X-0.200000X0.150000X-0.200000X-0.150000X0.200000X-0.150000X0.200000X0.150000X0*%
%ADD22R,0.500000X0.300000*%
%ADD23RoundRect,0.218750X-0.218750X-0.256250X0.218750X-0.256250X0.218750X0.256250X-0.218750X0.256250X0*%
%ADD24R,1.600000X1.000000*%
%ADD25RoundRect,0.225000X-0.250000X0.225000X-0.250000X-0.225000X0.250000X-0.225000X0.250000X0.225000X0*%
%ADD26C,3.200000*%
%ADD27R,0.300000X0.800000*%
%ADD28RoundRect,0.150000X-0.825000X-0.150000X0.825000X-0.150000X0.825000X0.150000X-0.825000X0.150000X0*%
%ADD29RoundRect,0.100000X-0.175000X-0.100000X0.175000X-0.100000X0.175000X0.100000X-0.175000X0.100000X0*%
%ADD30Outline5P,-0.625000X0.550000X-0.325000X0.850000X0.625000X0.850000X0.625000X-0.850000X-0.625000X-0.850000X0.000000*%
%ADD31RoundRect,0.100000X-0.225000X-0.100000X0.225000X-0.100000X0.225000X0.100000X-0.225000X0.100000X0*%
%ADD32RoundRect,0.150000X-0.512500X-0.150000X0.512500X-0.150000X0.512500X0.150000X-0.512500X0.150000X0*%
G04 APERTURE END LIST*
D10*
X41589160Y-56422200D02*
X41732017Y-56469819D01*
X41732017Y-56469819D02*
X41970112Y-56469819D01*
X41970112Y-56469819D02*
X42065350Y-56422200D01*
X42065350Y-56422200D02*
X42112969Y-56374580D01*
X42112969Y-56374580D02*
X42160588Y-56279342D01*
X42160588Y-56279342D02*
X42160588Y-56184104D01*
X42160588Y-56184104D02*
X42112969Y-56088866D01*
X42112969Y-56088866D02*
X42065350Y-56041247D01*
X42065350Y-56041247D02*
X41970112Y-55993628D01*
X41970112Y-55993628D02*
X41779636Y-55946009D01*
X41779636Y-55946009D02*
X41684398Y-55898390D01*
X41684398Y-55898390D02*
X41636779Y-55850771D01*
X41636779Y-55850771D02*
X41589160Y-55755533D01*
X41589160Y-55755533D02*
X41589160Y-55660295D01*
X41589160Y-55660295D02*
X41636779Y-55565057D01*
X41636779Y-55565057D02*
X41684398Y-55517438D01*
X41684398Y-55517438D02*
X41779636Y-55469819D01*
X41779636Y-55469819D02*
X42017731Y-55469819D01*
X42017731Y-55469819D02*
X42160588Y-55517438D01*
X42493922Y-55469819D02*
X42732017Y-56469819D01*
X42732017Y-56469819D02*
X42922493Y-55755533D01*
X42922493Y-55755533D02*
X43112969Y-56469819D01*
X43112969Y-56469819D02*
X43351065Y-55469819D01*
X43732017Y-56469819D02*
X43732017Y-55469819D01*
X43732017Y-55469819D02*
X43970112Y-55469819D01*
X43970112Y-55469819D02*
X44112969Y-55517438D01*
X44112969Y-55517438D02*
X44208207Y-55612676D01*
X44208207Y-55612676D02*
X44255826Y-55707914D01*
X44255826Y-55707914D02*
X44303445Y-55898390D01*
X44303445Y-55898390D02*
X44303445Y-56041247D01*
X44303445Y-56041247D02*
X44255826Y-56231723D01*
X44255826Y-56231723D02*
X44208207Y-56326961D01*
X44208207Y-56326961D02*
X44112969Y-56422200D01*
X44112969Y-56422200D02*
X43970112Y-56469819D01*
X43970112Y-56469819D02*
X43732017Y-56469819D01*
X44732017Y-56469819D02*
X44732017Y-55469819D01*
X45398683Y-55469819D02*
X45589159Y-55469819D01*
X45589159Y-55469819D02*
X45684397Y-55517438D01*
X45684397Y-55517438D02*
X45779635Y-55612676D01*
X45779635Y-55612676D02*
X45827254Y-55803152D01*
X45827254Y-55803152D02*
X45827254Y-56136485D01*
X45827254Y-56136485D02*
X45779635Y-56326961D01*
X45779635Y-56326961D02*
X45684397Y-56422200D01*
X45684397Y-56422200D02*
X45589159Y-56469819D01*
X45589159Y-56469819D02*
X45398683Y-56469819D01*
X45398683Y-56469819D02*
X45303445Y-56422200D01*
X45303445Y-56422200D02*
X45208207Y-56326961D01*
X45208207Y-56326961D02*
X45160588Y-56136485D01*
X45160588Y-56136485D02*
X45160588Y-55803152D01*
X45160588Y-55803152D02*
X45208207Y-55612676D01*
X45208207Y-55612676D02*
X45303445Y-55517438D01*
X45303445Y-55517438D02*
X45398683Y-55469819D01*
X51336779Y-56088866D02*
X52098684Y-56088866D01*
X51717731Y-56469819D02*
X51717731Y-55707914D01*
X52479636Y-55469819D02*
X53098683Y-55469819D01*
X53098683Y-55469819D02*
X52765350Y-55850771D01*
X52765350Y-55850771D02*
X52908207Y-55850771D01*
X52908207Y-55850771D02*
X53003445Y-55898390D01*
X53003445Y-55898390D02*
X53051064Y-55946009D01*
X53051064Y-55946009D02*
X53098683Y-56041247D01*
X53098683Y-56041247D02*
X53098683Y-56279342D01*
X53098683Y-56279342D02*
X53051064Y-56374580D01*
X53051064Y-56374580D02*
X53003445Y-56422200D01*
X53003445Y-56422200D02*
X52908207Y-56469819D01*
X52908207Y-56469819D02*
X52622493Y-56469819D01*
X52622493Y-56469819D02*
X52527255Y-56422200D01*
X52527255Y-56422200D02*
X52479636Y-56374580D01*
X53527255Y-56374580D02*
X53574874Y-56422200D01*
X53574874Y-56422200D02*
X53527255Y-56469819D01*
X53527255Y-56469819D02*
X53479636Y-56422200D01*
X53479636Y-56422200D02*
X53527255Y-56374580D01*
X53527255Y-56374580D02*
X53527255Y-56469819D01*
X53908207Y-55469819D02*
X54527254Y-55469819D01*
X54527254Y-55469819D02*
X54193921Y-55850771D01*
X54193921Y-55850771D02*
X54336778Y-55850771D01*
X54336778Y-55850771D02*
X54432016Y-55898390D01*
X54432016Y-55898390D02*
X54479635Y-55946009D01*
X54479635Y-55946009D02*
X54527254Y-56041247D01*
X54527254Y-56041247D02*
X54527254Y-56279342D01*
X54527254Y-56279342D02*
X54479635Y-56374580D01*
X54479635Y-56374580D02*
X54432016Y-56422200D01*
X54432016Y-56422200D02*
X54336778Y-56469819D01*
X54336778Y-56469819D02*
X54051064Y-56469819D01*
X54051064Y-56469819D02*
X53955826Y-56422200D01*
X53955826Y-56422200D02*
X53908207Y-56374580D01*
X54812969Y-55469819D02*
X55146302Y-56469819D01*
X55146302Y-56469819D02*
X55479635Y-55469819D01*
X57760588Y-55517438D02*
X57665350Y-55469819D01*
X57665350Y-55469819D02*
X57522493Y-55469819D01*
X57522493Y-55469819D02*
X57379636Y-55517438D01*
X57379636Y-55517438D02*
X57284398Y-55612676D01*
X57284398Y-55612676D02*
X57236779Y-55707914D01*
X57236779Y-55707914D02*
X57189160Y-55898390D01*
X57189160Y-55898390D02*
X57189160Y-56041247D01*
X57189160Y-56041247D02*
X57236779Y-56231723D01*
X57236779Y-56231723D02*
X57284398Y-56326961D01*
X57284398Y-56326961D02*
X57379636Y-56422200D01*
X57379636Y-56422200D02*
X57522493Y-56469819D01*
X57522493Y-56469819D02*
X57617731Y-56469819D01*
X57617731Y-56469819D02*
X57760588Y-56422200D01*
X57760588Y-56422200D02*
X57808207Y-56374580D01*
X57808207Y-56374580D02*
X57808207Y-56041247D01*
X57808207Y-56041247D02*
X57617731Y-56041247D01*
X58236779Y-56469819D02*
X58236779Y-55469819D01*
X58236779Y-55469819D02*
X58808207Y-56469819D01*
X58808207Y-56469819D02*
X58808207Y-55469819D01*
X59284398Y-56469819D02*
X59284398Y-55469819D01*
X59284398Y-55469819D02*
X59522493Y-55469819D01*
X59522493Y-55469819D02*
X59665350Y-55517438D01*
X59665350Y-55517438D02*
X59760588Y-55612676D01*
X59760588Y-55612676D02*
X59808207Y-55707914D01*
X59808207Y-55707914D02*
X59855826Y-55898390D01*
X59855826Y-55898390D02*
X59855826Y-56041247D01*
X59855826Y-56041247D02*
X59808207Y-56231723D01*
X59808207Y-56231723D02*
X59760588Y-56326961D01*
X59760588Y-56326961D02*
X59665350Y-56422200D01*
X59665350Y-56422200D02*
X59522493Y-56469819D01*
X59522493Y-56469819D02*
X59284398Y-56469819D01*
X36489160Y-56422200D02*
X36632017Y-56469819D01*
X36632017Y-56469819D02*
X36870112Y-56469819D01*
X36870112Y-56469819D02*
X36965350Y-56422200D01*
X36965350Y-56422200D02*
X37012969Y-56374580D01*
X37012969Y-56374580D02*
X37060588Y-56279342D01*
X37060588Y-56279342D02*
X37060588Y-56184104D01*
X37060588Y-56184104D02*
X37012969Y-56088866D01*
X37012969Y-56088866D02*
X36965350Y-56041247D01*
X36965350Y-56041247D02*
X36870112Y-55993628D01*
X36870112Y-55993628D02*
X36679636Y-55946009D01*
X36679636Y-55946009D02*
X36584398Y-55898390D01*
X36584398Y-55898390D02*
X36536779Y-55850771D01*
X36536779Y-55850771D02*
X36489160Y-55755533D01*
X36489160Y-55755533D02*
X36489160Y-55660295D01*
X36489160Y-55660295D02*
X36536779Y-55565057D01*
X36536779Y-55565057D02*
X36584398Y-55517438D01*
X36584398Y-55517438D02*
X36679636Y-55469819D01*
X36679636Y-55469819D02*
X36917731Y-55469819D01*
X36917731Y-55469819D02*
X37060588Y-55517438D01*
X37393922Y-55469819D02*
X37632017Y-56469819D01*
X37632017Y-56469819D02*
X37822493Y-55755533D01*
X37822493Y-55755533D02*
X38012969Y-56469819D01*
X38012969Y-56469819D02*
X38251065Y-55469819D01*
X39203445Y-56374580D02*
X39155826Y-56422200D01*
X39155826Y-56422200D02*
X39012969Y-56469819D01*
X39012969Y-56469819D02*
X38917731Y-56469819D01*
X38917731Y-56469819D02*
X38774874Y-56422200D01*
X38774874Y-56422200D02*
X38679636Y-56326961D01*
X38679636Y-56326961D02*
X38632017Y-56231723D01*
X38632017Y-56231723D02*
X38584398Y-56041247D01*
X38584398Y-56041247D02*
X38584398Y-55898390D01*
X38584398Y-55898390D02*
X38632017Y-55707914D01*
X38632017Y-55707914D02*
X38679636Y-55612676D01*
X38679636Y-55612676D02*
X38774874Y-55517438D01*
X38774874Y-55517438D02*
X38917731Y-55469819D01*
X38917731Y-55469819D02*
X39012969Y-55469819D01*
X39012969Y-55469819D02*
X39155826Y-55517438D01*
X39155826Y-55517438D02*
X39203445Y-55565057D01*
X40108207Y-56469819D02*
X39632017Y-56469819D01*
X39632017Y-56469819D02*
X39632017Y-55469819D01*
X40441541Y-56469819D02*
X40441541Y-55469819D01*
X41012969Y-56469819D02*
X40584398Y-55898390D01*
X41012969Y-55469819D02*
X40441541Y-56041247D01*
X66389160Y-46822200D02*
X66532017Y-46869819D01*
X66532017Y-46869819D02*
X66770112Y-46869819D01*
X66770112Y-46869819D02*
X66865350Y-46822200D01*
X66865350Y-46822200D02*
X66912969Y-46774580D01*
X66912969Y-46774580D02*
X66960588Y-46679342D01*
X66960588Y-46679342D02*
X66960588Y-46584104D01*
X66960588Y-46584104D02*
X66912969Y-46488866D01*
X66912969Y-46488866D02*
X66865350Y-46441247D01*
X66865350Y-46441247D02*
X66770112Y-46393628D01*
X66770112Y-46393628D02*
X66579636Y-46346009D01*
X66579636Y-46346009D02*
X66484398Y-46298390D01*
X66484398Y-46298390D02*
X66436779Y-46250771D01*
X66436779Y-46250771D02*
X66389160Y-46155533D01*
X66389160Y-46155533D02*
X66389160Y-46060295D01*
X66389160Y-46060295D02*
X66436779Y-45965057D01*
X66436779Y-45965057D02*
X66484398Y-45917438D01*
X66484398Y-45917438D02*
X66579636Y-45869819D01*
X66579636Y-45869819D02*
X66817731Y-45869819D01*
X66817731Y-45869819D02*
X66960588Y-45917438D01*
X67960588Y-46774580D02*
X67912969Y-46822200D01*
X67912969Y-46822200D02*
X67770112Y-46869819D01*
X67770112Y-46869819D02*
X67674874Y-46869819D01*
X67674874Y-46869819D02*
X67532017Y-46822200D01*
X67532017Y-46822200D02*
X67436779Y-46726961D01*
X67436779Y-46726961D02*
X67389160Y-46631723D01*
X67389160Y-46631723D02*
X67341541Y-46441247D01*
X67341541Y-46441247D02*
X67341541Y-46298390D01*
X67341541Y-46298390D02*
X67389160Y-46107914D01*
X67389160Y-46107914D02*
X67436779Y-46012676D01*
X67436779Y-46012676D02*
X67532017Y-45917438D01*
X67532017Y-45917438D02*
X67674874Y-45869819D01*
X67674874Y-45869819D02*
X67770112Y-45869819D01*
X67770112Y-45869819D02*
X67912969Y-45917438D01*
X67912969Y-45917438D02*
X67960588Y-45965057D01*
X68865350Y-46869819D02*
X68389160Y-46869819D01*
X68389160Y-46869819D02*
X68389160Y-45869819D01*
X66389160Y-42822200D02*
X66532017Y-42869819D01*
X66532017Y-42869819D02*
X66770112Y-42869819D01*
X66770112Y-42869819D02*
X66865350Y-42822200D01*
X66865350Y-42822200D02*
X66912969Y-42774580D01*
X66912969Y-42774580D02*
X66960588Y-42679342D01*
X66960588Y-42679342D02*
X66960588Y-42584104D01*
X66960588Y-42584104D02*
X66912969Y-42488866D01*
X66912969Y-42488866D02*
X66865350Y-42441247D01*
X66865350Y-42441247D02*
X66770112Y-42393628D01*
X66770112Y-42393628D02*
X66579636Y-42346009D01*
X66579636Y-42346009D02*
X66484398Y-42298390D01*
X66484398Y-42298390D02*
X66436779Y-42250771D01*
X66436779Y-42250771D02*
X66389160Y-42155533D01*
X66389160Y-42155533D02*
X66389160Y-42060295D01*
X66389160Y-42060295D02*
X66436779Y-41965057D01*
X66436779Y-41965057D02*
X66484398Y-41917438D01*
X66484398Y-41917438D02*
X66579636Y-41869819D01*
X66579636Y-41869819D02*
X66817731Y-41869819D01*
X66817731Y-41869819D02*
X66960588Y-41917438D01*
X67389160Y-42869819D02*
X67389160Y-41869819D01*
X67389160Y-41869819D02*
X67627255Y-41869819D01*
X67627255Y-41869819D02*
X67770112Y-41917438D01*
X67770112Y-41917438D02*
X67865350Y-42012676D01*
X67865350Y-42012676D02*
X67912969Y-42107914D01*
X67912969Y-42107914D02*
X67960588Y-42298390D01*
X67960588Y-42298390D02*
X67960588Y-42441247D01*
X67960588Y-42441247D02*
X67912969Y-42631723D01*
X67912969Y-42631723D02*
X67865350Y-42726961D01*
X67865350Y-42726961D02*
X67770112Y-42822200D01*
X67770112Y-42822200D02*
X67627255Y-42869819D01*
X67627255Y-42869819D02*
X67389160Y-42869819D01*
X68341541Y-42584104D02*
X68817731Y-42584104D01*
X68246303Y-42869819D02*
X68579636Y-41869819D01*
X68579636Y-41869819D02*
X68912969Y-42869819D01*
X48789160Y-32122200D02*
X48932017Y-32169819D01*
X48932017Y-32169819D02*
X49170112Y-32169819D01*
X49170112Y-32169819D02*
X49265350Y-32122200D01*
X49265350Y-32122200D02*
X49312969Y-32074580D01*
X49312969Y-32074580D02*
X49360588Y-31979342D01*
X49360588Y-31979342D02*
X49360588Y-31884104D01*
X49360588Y-31884104D02*
X49312969Y-31788866D01*
X49312969Y-31788866D02*
X49265350Y-31741247D01*
X49265350Y-31741247D02*
X49170112Y-31693628D01*
X49170112Y-31693628D02*
X48979636Y-31646009D01*
X48979636Y-31646009D02*
X48884398Y-31598390D01*
X48884398Y-31598390D02*
X48836779Y-31550771D01*
X48836779Y-31550771D02*
X48789160Y-31455533D01*
X48789160Y-31455533D02*
X48789160Y-31360295D01*
X48789160Y-31360295D02*
X48836779Y-31265057D01*
X48836779Y-31265057D02*
X48884398Y-31217438D01*
X48884398Y-31217438D02*
X48979636Y-31169819D01*
X48979636Y-31169819D02*
X49217731Y-31169819D01*
X49217731Y-31169819D02*
X49360588Y-31217438D01*
X50122493Y-31646009D02*
X50265350Y-31693628D01*
X50265350Y-31693628D02*
X50312969Y-31741247D01*
X50312969Y-31741247D02*
X50360588Y-31836485D01*
X50360588Y-31836485D02*
X50360588Y-31979342D01*
X50360588Y-31979342D02*
X50312969Y-32074580D01*
X50312969Y-32074580D02*
X50265350Y-32122200D01*
X50265350Y-32122200D02*
X50170112Y-32169819D01*
X50170112Y-32169819D02*
X49789160Y-32169819D01*
X49789160Y-32169819D02*
X49789160Y-31169819D01*
X49789160Y-31169819D02*
X50122493Y-31169819D01*
X50122493Y-31169819D02*
X50217731Y-31217438D01*
X50217731Y-31217438D02*
X50265350Y-31265057D01*
X50265350Y-31265057D02*
X50312969Y-31360295D01*
X50312969Y-31360295D02*
X50312969Y-31455533D01*
X50312969Y-31455533D02*
X50265350Y-31550771D01*
X50265350Y-31550771D02*
X50217731Y-31598390D01*
X50217731Y-31598390D02*
X50122493Y-31646009D01*
X50122493Y-31646009D02*
X49789160Y-31646009D01*
X50789160Y-31788866D02*
X51551065Y-31788866D01*
X51884398Y-31169819D02*
X52217731Y-32169819D01*
X52217731Y-32169819D02*
X52551064Y-31169819D01*
X53074874Y-31169819D02*
X53265350Y-31169819D01*
X53265350Y-31169819D02*
X53360588Y-31217438D01*
X53360588Y-31217438D02*
X53455826Y-31312676D01*
X53455826Y-31312676D02*
X53503445Y-31503152D01*
X53503445Y-31503152D02*
X53503445Y-31836485D01*
X53503445Y-31836485D02*
X53455826Y-32026961D01*
X53455826Y-32026961D02*
X53360588Y-32122200D01*
X53360588Y-32122200D02*
X53265350Y-32169819D01*
X53265350Y-32169819D02*
X53074874Y-32169819D01*
X53074874Y-32169819D02*
X52979636Y-32122200D01*
X52979636Y-32122200D02*
X52884398Y-32026961D01*
X52884398Y-32026961D02*
X52836779Y-31836485D01*
X52836779Y-31836485D02*
X52836779Y-31503152D01*
X52836779Y-31503152D02*
X52884398Y-31312676D01*
X52884398Y-31312676D02*
X52979636Y-31217438D01*
X52979636Y-31217438D02*
X53074874Y-31169819D01*
X54503445Y-32074580D02*
X54455826Y-32122200D01*
X54455826Y-32122200D02*
X54312969Y-32169819D01*
X54312969Y-32169819D02*
X54217731Y-32169819D01*
X54217731Y-32169819D02*
X54074874Y-32122200D01*
X54074874Y-32122200D02*
X53979636Y-32026961D01*
X53979636Y-32026961D02*
X53932017Y-31931723D01*
X53932017Y-31931723D02*
X53884398Y-31741247D01*
X53884398Y-31741247D02*
X53884398Y-31598390D01*
X53884398Y-31598390D02*
X53932017Y-31407914D01*
X53932017Y-31407914D02*
X53979636Y-31312676D01*
X53979636Y-31312676D02*
X54074874Y-31217438D01*
X54074874Y-31217438D02*
X54217731Y-31169819D01*
X54217731Y-31169819D02*
X54312969Y-31169819D01*
X54312969Y-31169819D02*
X54455826Y-31217438D01*
X54455826Y-31217438D02*
X54503445Y-31265057D01*
X54932017Y-31788866D02*
X55693922Y-31788866D01*
X56170112Y-32169819D02*
X56170112Y-31169819D01*
X56170112Y-31646009D02*
X56741540Y-31646009D01*
X56741540Y-32169819D02*
X56741540Y-31169819D01*
X57217731Y-31169819D02*
X57217731Y-31979342D01*
X57217731Y-31979342D02*
X57265350Y-32074580D01*
X57265350Y-32074580D02*
X57312969Y-32122200D01*
X57312969Y-32122200D02*
X57408207Y-32169819D01*
X57408207Y-32169819D02*
X57598683Y-32169819D01*
X57598683Y-32169819D02*
X57693921Y-32122200D01*
X57693921Y-32122200D02*
X57741540Y-32074580D01*
X57741540Y-32074580D02*
X57789159Y-31979342D01*
X57789159Y-31979342D02*
X57789159Y-31169819D01*
X58265350Y-32169819D02*
X58265350Y-31169819D01*
X58265350Y-31169819D02*
X58598683Y-31884104D01*
X58598683Y-31884104D02*
X58932016Y-31169819D01*
X58932016Y-31169819D02*
X58932016Y-32169819D01*
X59408207Y-31788866D02*
X60170112Y-31788866D01*
X60503445Y-31169819D02*
X61074873Y-31169819D01*
X60789159Y-32169819D02*
X60789159Y-31169819D01*
X61408207Y-31646009D02*
X61741540Y-31646009D01*
X61884397Y-32169819D02*
X61408207Y-32169819D01*
X61408207Y-32169819D02*
X61408207Y-31169819D01*
X61408207Y-31169819D02*
X61884397Y-31169819D01*
X62312969Y-32169819D02*
X62312969Y-31169819D01*
X62312969Y-31169819D02*
X62646302Y-31884104D01*
X62646302Y-31884104D02*
X62979635Y-31169819D01*
X62979635Y-31169819D02*
X62979635Y-32169819D01*
X63455826Y-32169819D02*
X63455826Y-31169819D01*
X63455826Y-31169819D02*
X63836778Y-31169819D01*
X63836778Y-31169819D02*
X63932016Y-31217438D01*
X63932016Y-31217438D02*
X63979635Y-31265057D01*
X63979635Y-31265057D02*
X64027254Y-31360295D01*
X64027254Y-31360295D02*
X64027254Y-31503152D01*
X64027254Y-31503152D02*
X63979635Y-31598390D01*
X63979635Y-31598390D02*
X63932016Y-31646009D01*
X63932016Y-31646009D02*
X63836778Y-31693628D01*
X63836778Y-31693628D02*
X63455826Y-31693628D01*
X65217731Y-32169819D02*
X65217731Y-31503152D01*
X65217731Y-31693628D02*
X65265350Y-31598390D01*
X65265350Y-31598390D02*
X65312969Y-31550771D01*
X65312969Y-31550771D02*
X65408207Y-31503152D01*
X65408207Y-31503152D02*
X65503445Y-31503152D01*
X66217731Y-32122200D02*
X66122493Y-32169819D01*
X66122493Y-32169819D02*
X65932017Y-32169819D01*
X65932017Y-32169819D02*
X65836779Y-32122200D01*
X65836779Y-32122200D02*
X65789160Y-32026961D01*
X65789160Y-32026961D02*
X65789160Y-31646009D01*
X65789160Y-31646009D02*
X65836779Y-31550771D01*
X65836779Y-31550771D02*
X65932017Y-31503152D01*
X65932017Y-31503152D02*
X66122493Y-31503152D01*
X66122493Y-31503152D02*
X66217731Y-31550771D01*
X66217731Y-31550771D02*
X66265350Y-31646009D01*
X66265350Y-31646009D02*
X66265350Y-31741247D01*
X66265350Y-31741247D02*
X65789160Y-31836485D01*
X66598684Y-31503152D02*
X66836779Y-32169819D01*
X66836779Y-32169819D02*
X67074874Y-31503152D01*
X68170113Y-31884104D02*
X68646303Y-31884104D01*
X68074875Y-32169819D02*
X68408208Y-31169819D01*
X68408208Y-31169819D02*
X68741541Y-32169819D01*
X47036779Y-56469819D02*
X47036779Y-55469819D01*
X47036779Y-55469819D02*
X47608207Y-56469819D01*
X47608207Y-56469819D02*
X47608207Y-55469819D01*
X48655826Y-56469819D02*
X48322493Y-55993628D01*
X48084398Y-56469819D02*
X48084398Y-55469819D01*
X48084398Y-55469819D02*
X48465350Y-55469819D01*
X48465350Y-55469819D02*
X48560588Y-55517438D01*
X48560588Y-55517438D02*
X48608207Y-55565057D01*
X48608207Y-55565057D02*
X48655826Y-55660295D01*
X48655826Y-55660295D02*
X48655826Y-55803152D01*
X48655826Y-55803152D02*
X48608207Y-55898390D01*
X48608207Y-55898390D02*
X48560588Y-55946009D01*
X48560588Y-55946009D02*
X48465350Y-55993628D01*
X48465350Y-55993628D02*
X48084398Y-55993628D01*
X49036779Y-56422200D02*
X49179636Y-56469819D01*
X49179636Y-56469819D02*
X49417731Y-56469819D01*
X49417731Y-56469819D02*
X49512969Y-56422200D01*
X49512969Y-56422200D02*
X49560588Y-56374580D01*
X49560588Y-56374580D02*
X49608207Y-56279342D01*
X49608207Y-56279342D02*
X49608207Y-56184104D01*
X49608207Y-56184104D02*
X49560588Y-56088866D01*
X49560588Y-56088866D02*
X49512969Y-56041247D01*
X49512969Y-56041247D02*
X49417731Y-55993628D01*
X49417731Y-55993628D02*
X49227255Y-55946009D01*
X49227255Y-55946009D02*
X49132017Y-55898390D01*
X49132017Y-55898390D02*
X49084398Y-55850771D01*
X49084398Y-55850771D02*
X49036779Y-55755533D01*
X49036779Y-55755533D02*
X49036779Y-55660295D01*
X49036779Y-55660295D02*
X49084398Y-55565057D01*
X49084398Y-55565057D02*
X49132017Y-55517438D01*
X49132017Y-55517438D02*
X49227255Y-55469819D01*
X49227255Y-55469819D02*
X49465350Y-55469819D01*
X49465350Y-55469819D02*
X49608207Y-55517438D01*
X49893922Y-55469819D02*
X50465350Y-55469819D01*
X50179636Y-56469819D02*
X50179636Y-55469819D01*
X38466666Y-39154819D02*
X38466666Y-39869104D01*
X38466666Y-39869104D02*
X38419047Y-40011961D01*
X38419047Y-40011961D02*
X38323809Y-40107200D01*
X38323809Y-40107200D02*
X38180952Y-40154819D01*
X38180952Y-40154819D02*
X38085714Y-40154819D01*
X39466666Y-40154819D02*
X38895238Y-40154819D01*
X39180952Y-40154819D02*
X39180952Y-39154819D01*
X39180952Y-39154819D02*
X39085714Y-39297676D01*
X39085714Y-39297676D02*
X38990476Y-39392914D01*
X38990476Y-39392914D02*
X38895238Y-39440533D01*
X40561905Y-35054819D02*
X40561905Y-34054819D01*
X40561905Y-34054819D02*
X40800000Y-34054819D01*
X40800000Y-34054819D02*
X40942857Y-34102438D01*
X40942857Y-34102438D02*
X41038095Y-34197676D01*
X41038095Y-34197676D02*
X41085714Y-34292914D01*
X41085714Y-34292914D02*
X41133333Y-34483390D01*
X41133333Y-34483390D02*
X41133333Y-34626247D01*
X41133333Y-34626247D02*
X41085714Y-34816723D01*
X41085714Y-34816723D02*
X41038095Y-34911961D01*
X41038095Y-34911961D02*
X40942857Y-35007200D01*
X40942857Y-35007200D02*
X40800000Y-35054819D01*
X40800000Y-35054819D02*
X40561905Y-35054819D01*
X42085714Y-35054819D02*
X41514286Y-35054819D01*
X41800000Y-35054819D02*
X41800000Y-34054819D01*
X41800000Y-34054819D02*
X41704762Y-34197676D01*
X41704762Y-34197676D02*
X41609524Y-34292914D01*
X41609524Y-34292914D02*
X41514286Y-34340533D01*
X42633333Y-47754819D02*
X42300000Y-47278628D01*
X42061905Y-47754819D02*
X42061905Y-46754819D01*
X42061905Y-46754819D02*
X42442857Y-46754819D01*
X42442857Y-46754819D02*
X42538095Y-46802438D01*
X42538095Y-46802438D02*
X42585714Y-46850057D01*
X42585714Y-46850057D02*
X42633333Y-46945295D01*
X42633333Y-46945295D02*
X42633333Y-47088152D01*
X42633333Y-47088152D02*
X42585714Y-47183390D01*
X42585714Y-47183390D02*
X42538095Y-47231009D01*
X42538095Y-47231009D02*
X42442857Y-47278628D01*
X42442857Y-47278628D02*
X42061905Y-47278628D01*
X42966667Y-46754819D02*
X43585714Y-46754819D01*
X43585714Y-46754819D02*
X43252381Y-47135771D01*
X43252381Y-47135771D02*
X43395238Y-47135771D01*
X43395238Y-47135771D02*
X43490476Y-47183390D01*
X43490476Y-47183390D02*
X43538095Y-47231009D01*
X43538095Y-47231009D02*
X43585714Y-47326247D01*
X43585714Y-47326247D02*
X43585714Y-47564342D01*
X43585714Y-47564342D02*
X43538095Y-47659580D01*
X43538095Y-47659580D02*
X43490476Y-47707200D01*
X43490476Y-47707200D02*
X43395238Y-47754819D01*
X43395238Y-47754819D02*
X43109524Y-47754819D01*
X43109524Y-47754819D02*
X43014286Y-47707200D01*
X43014286Y-47707200D02*
X42966667Y-47659580D01*
X49459580Y-41266666D02*
X49507200Y-41314285D01*
X49507200Y-41314285D02*
X49554819Y-41457142D01*
X49554819Y-41457142D02*
X49554819Y-41552380D01*
X49554819Y-41552380D02*
X49507200Y-41695237D01*
X49507200Y-41695237D02*
X49411961Y-41790475D01*
X49411961Y-41790475D02*
X49316723Y-41838094D01*
X49316723Y-41838094D02*
X49126247Y-41885713D01*
X49126247Y-41885713D02*
X48983390Y-41885713D01*
X48983390Y-41885713D02*
X48792914Y-41838094D01*
X48792914Y-41838094D02*
X48697676Y-41790475D01*
X48697676Y-41790475D02*
X48602438Y-41695237D01*
X48602438Y-41695237D02*
X48554819Y-41552380D01*
X48554819Y-41552380D02*
X48554819Y-41457142D01*
X48554819Y-41457142D02*
X48602438Y-41314285D01*
X48602438Y-41314285D02*
X48650057Y-41266666D01*
X48888152Y-40409523D02*
X49554819Y-40409523D01*
X48507200Y-40647618D02*
X49221485Y-40885713D01*
X49221485Y-40885713D02*
X49221485Y-40266666D01*
X42559580Y-39666666D02*
X42607200Y-39714285D01*
X42607200Y-39714285D02*
X42654819Y-39857142D01*
X42654819Y-39857142D02*
X42654819Y-39952380D01*
X42654819Y-39952380D02*
X42607200Y-40095237D01*
X42607200Y-40095237D02*
X42511961Y-40190475D01*
X42511961Y-40190475D02*
X42416723Y-40238094D01*
X42416723Y-40238094D02*
X42226247Y-40285713D01*
X42226247Y-40285713D02*
X42083390Y-40285713D01*
X42083390Y-40285713D02*
X41892914Y-40238094D01*
X41892914Y-40238094D02*
X41797676Y-40190475D01*
X41797676Y-40190475D02*
X41702438Y-40095237D01*
X41702438Y-40095237D02*
X41654819Y-39952380D01*
X41654819Y-39952380D02*
X41654819Y-39857142D01*
X41654819Y-39857142D02*
X41702438Y-39714285D01*
X41702438Y-39714285D02*
X41750057Y-39666666D01*
X42654819Y-38714285D02*
X42654819Y-39285713D01*
X42654819Y-38999999D02*
X41654819Y-38999999D01*
X41654819Y-38999999D02*
X41797676Y-39095237D01*
X41797676Y-39095237D02*
X41892914Y-39190475D01*
X41892914Y-39190475D02*
X41940533Y-39285713D01*
X57433333Y-34954819D02*
X57100000Y-34478628D01*
X56861905Y-34954819D02*
X56861905Y-33954819D01*
X56861905Y-33954819D02*
X57242857Y-33954819D01*
X57242857Y-33954819D02*
X57338095Y-34002438D01*
X57338095Y-34002438D02*
X57385714Y-34050057D01*
X57385714Y-34050057D02*
X57433333Y-34145295D01*
X57433333Y-34145295D02*
X57433333Y-34288152D01*
X57433333Y-34288152D02*
X57385714Y-34383390D01*
X57385714Y-34383390D02*
X57338095Y-34431009D01*
X57338095Y-34431009D02*
X57242857Y-34478628D01*
X57242857Y-34478628D02*
X56861905Y-34478628D01*
X58338095Y-33954819D02*
X57861905Y-33954819D01*
X57861905Y-33954819D02*
X57814286Y-34431009D01*
X57814286Y-34431009D02*
X57861905Y-34383390D01*
X57861905Y-34383390D02*
X57957143Y-34335771D01*
X57957143Y-34335771D02*
X58195238Y-34335771D01*
X58195238Y-34335771D02*
X58290476Y-34383390D01*
X58290476Y-34383390D02*
X58338095Y-34431009D01*
X58338095Y-34431009D02*
X58385714Y-34526247D01*
X58385714Y-34526247D02*
X58385714Y-34764342D01*
X58385714Y-34764342D02*
X58338095Y-34859580D01*
X58338095Y-34859580D02*
X58290476Y-34907200D01*
X58290476Y-34907200D02*
X58195238Y-34954819D01*
X58195238Y-34954819D02*
X57957143Y-34954819D01*
X57957143Y-34954819D02*
X57861905Y-34907200D01*
X57861905Y-34907200D02*
X57814286Y-34859580D01*
X42633333Y-43254819D02*
X42300000Y-42778628D01*
X42061905Y-43254819D02*
X42061905Y-42254819D01*
X42061905Y-42254819D02*
X42442857Y-42254819D01*
X42442857Y-42254819D02*
X42538095Y-42302438D01*
X42538095Y-42302438D02*
X42585714Y-42350057D01*
X42585714Y-42350057D02*
X42633333Y-42445295D01*
X42633333Y-42445295D02*
X42633333Y-42588152D01*
X42633333Y-42588152D02*
X42585714Y-42683390D01*
X42585714Y-42683390D02*
X42538095Y-42731009D01*
X42538095Y-42731009D02*
X42442857Y-42778628D01*
X42442857Y-42778628D02*
X42061905Y-42778628D01*
X43014286Y-42350057D02*
X43061905Y-42302438D01*
X43061905Y-42302438D02*
X43157143Y-42254819D01*
X43157143Y-42254819D02*
X43395238Y-42254819D01*
X43395238Y-42254819D02*
X43490476Y-42302438D01*
X43490476Y-42302438D02*
X43538095Y-42350057D01*
X43538095Y-42350057D02*
X43585714Y-42445295D01*
X43585714Y-42445295D02*
X43585714Y-42540533D01*
X43585714Y-42540533D02*
X43538095Y-42683390D01*
X43538095Y-42683390D02*
X42966667Y-43254819D01*
X42966667Y-43254819D02*
X43585714Y-43254819D01*
X55033333Y-49654819D02*
X54700000Y-49178628D01*
X54461905Y-49654819D02*
X54461905Y-48654819D01*
X54461905Y-48654819D02*
X54842857Y-48654819D01*
X54842857Y-48654819D02*
X54938095Y-48702438D01*
X54938095Y-48702438D02*
X54985714Y-48750057D01*
X54985714Y-48750057D02*
X55033333Y-48845295D01*
X55033333Y-48845295D02*
X55033333Y-48988152D01*
X55033333Y-48988152D02*
X54985714Y-49083390D01*
X54985714Y-49083390D02*
X54938095Y-49131009D01*
X54938095Y-49131009D02*
X54842857Y-49178628D01*
X54842857Y-49178628D02*
X54461905Y-49178628D01*
X55604762Y-49083390D02*
X55509524Y-49035771D01*
X55509524Y-49035771D02*
X55461905Y-48988152D01*
X55461905Y-48988152D02*
X55414286Y-48892914D01*
X55414286Y-48892914D02*
X55414286Y-48845295D01*
X55414286Y-48845295D02*
X55461905Y-48750057D01*
X55461905Y-48750057D02*
X55509524Y-48702438D01*
X55509524Y-48702438D02*
X55604762Y-48654819D01*
X55604762Y-48654819D02*
X55795238Y-48654819D01*
X55795238Y-48654819D02*
X55890476Y-48702438D01*
X55890476Y-48702438D02*
X55938095Y-48750057D01*
X55938095Y-48750057D02*
X55985714Y-48845295D01*
X55985714Y-48845295D02*
X55985714Y-48892914D01*
X55985714Y-48892914D02*
X55938095Y-48988152D01*
X55938095Y-48988152D02*
X55890476Y-49035771D01*
X55890476Y-49035771D02*
X55795238Y-49083390D01*
X55795238Y-49083390D02*
X55604762Y-49083390D01*
X55604762Y-49083390D02*
X55509524Y-49131009D01*
X55509524Y-49131009D02*
X55461905Y-49178628D01*
X55461905Y-49178628D02*
X55414286Y-49273866D01*
X55414286Y-49273866D02*
X55414286Y-49464342D01*
X55414286Y-49464342D02*
X55461905Y-49559580D01*
X55461905Y-49559580D02*
X55509524Y-49607200D01*
X55509524Y-49607200D02*
X55604762Y-49654819D01*
X55604762Y-49654819D02*
X55795238Y-49654819D01*
X55795238Y-49654819D02*
X55890476Y-49607200D01*
X55890476Y-49607200D02*
X55938095Y-49559580D01*
X55938095Y-49559580D02*
X55985714Y-49464342D01*
X55985714Y-49464342D02*
X55985714Y-49273866D01*
X55985714Y-49273866D02*
X55938095Y-49178628D01*
X55938095Y-49178628D02*
X55890476Y-49131009D01*
X55890476Y-49131009D02*
X55795238Y-49083390D01*
X41554819Y-49638094D02*
X40554819Y-49638094D01*
X40554819Y-49638094D02*
X40554819Y-49399999D01*
X40554819Y-49399999D02*
X40602438Y-49257142D01*
X40602438Y-49257142D02*
X40697676Y-49161904D01*
X40697676Y-49161904D02*
X40792914Y-49114285D01*
X40792914Y-49114285D02*
X40983390Y-49066666D01*
X40983390Y-49066666D02*
X41126247Y-49066666D01*
X41126247Y-49066666D02*
X41316723Y-49114285D01*
X41316723Y-49114285D02*
X41411961Y-49161904D01*
X41411961Y-49161904D02*
X41507200Y-49257142D01*
X41507200Y-49257142D02*
X41554819Y-49399999D01*
X41554819Y-49399999D02*
X41554819Y-49638094D01*
X40554819Y-48733332D02*
X40554819Y-48114285D01*
X40554819Y-48114285D02*
X40935771Y-48447618D01*
X40935771Y-48447618D02*
X40935771Y-48304761D01*
X40935771Y-48304761D02*
X40983390Y-48209523D01*
X40983390Y-48209523D02*
X41031009Y-48161904D01*
X41031009Y-48161904D02*
X41126247Y-48114285D01*
X41126247Y-48114285D02*
X41364342Y-48114285D01*
X41364342Y-48114285D02*
X41459580Y-48161904D01*
X41459580Y-48161904D02*
X41507200Y-48209523D01*
X41507200Y-48209523D02*
X41554819Y-48304761D01*
X41554819Y-48304761D02*
X41554819Y-48590475D01*
X41554819Y-48590475D02*
X41507200Y-48685713D01*
X41507200Y-48685713D02*
X41459580Y-48733332D01*
X41654819Y-42038094D02*
X40654819Y-42038094D01*
X40654819Y-42038094D02*
X40654819Y-41799999D01*
X40654819Y-41799999D02*
X40702438Y-41657142D01*
X40702438Y-41657142D02*
X40797676Y-41561904D01*
X40797676Y-41561904D02*
X40892914Y-41514285D01*
X40892914Y-41514285D02*
X41083390Y-41466666D01*
X41083390Y-41466666D02*
X41226247Y-41466666D01*
X41226247Y-41466666D02*
X41416723Y-41514285D01*
X41416723Y-41514285D02*
X41511961Y-41561904D01*
X41511961Y-41561904D02*
X41607200Y-41657142D01*
X41607200Y-41657142D02*
X41654819Y-41799999D01*
X41654819Y-41799999D02*
X41654819Y-42038094D01*
X40750057Y-41085713D02*
X40702438Y-41038094D01*
X40702438Y-41038094D02*
X40654819Y-40942856D01*
X40654819Y-40942856D02*
X40654819Y-40704761D01*
X40654819Y-40704761D02*
X40702438Y-40609523D01*
X40702438Y-40609523D02*
X40750057Y-40561904D01*
X40750057Y-40561904D02*
X40845295Y-40514285D01*
X40845295Y-40514285D02*
X40940533Y-40514285D01*
X40940533Y-40514285D02*
X41083390Y-40561904D01*
X41083390Y-40561904D02*
X41654819Y-41133332D01*
X41654819Y-41133332D02*
X41654819Y-40514285D01*
X45159580Y-41866666D02*
X45207200Y-41914285D01*
X45207200Y-41914285D02*
X45254819Y-42057142D01*
X45254819Y-42057142D02*
X45254819Y-42152380D01*
X45254819Y-42152380D02*
X45207200Y-42295237D01*
X45207200Y-42295237D02*
X45111961Y-42390475D01*
X45111961Y-42390475D02*
X45016723Y-42438094D01*
X45016723Y-42438094D02*
X44826247Y-42485713D01*
X44826247Y-42485713D02*
X44683390Y-42485713D01*
X44683390Y-42485713D02*
X44492914Y-42438094D01*
X44492914Y-42438094D02*
X44397676Y-42390475D01*
X44397676Y-42390475D02*
X44302438Y-42295237D01*
X44302438Y-42295237D02*
X44254819Y-42152380D01*
X44254819Y-42152380D02*
X44254819Y-42057142D01*
X44254819Y-42057142D02*
X44302438Y-41914285D01*
X44302438Y-41914285D02*
X44350057Y-41866666D01*
X44254819Y-40961904D02*
X44254819Y-41438094D01*
X44254819Y-41438094D02*
X44731009Y-41485713D01*
X44731009Y-41485713D02*
X44683390Y-41438094D01*
X44683390Y-41438094D02*
X44635771Y-41342856D01*
X44635771Y-41342856D02*
X44635771Y-41104761D01*
X44635771Y-41104761D02*
X44683390Y-41009523D01*
X44683390Y-41009523D02*
X44731009Y-40961904D01*
X44731009Y-40961904D02*
X44826247Y-40914285D01*
X44826247Y-40914285D02*
X45064342Y-40914285D01*
X45064342Y-40914285D02*
X45159580Y-40961904D01*
X45159580Y-40961904D02*
X45207200Y-41009523D01*
X45207200Y-41009523D02*
X45254819Y-41104761D01*
X45254819Y-41104761D02*
X45254819Y-41342856D01*
X45254819Y-41342856D02*
X45207200Y-41438094D01*
X45207200Y-41438094D02*
X45159580Y-41485713D01*
X67533333Y-53259580D02*
X67485714Y-53307200D01*
X67485714Y-53307200D02*
X67342857Y-53354819D01*
X67342857Y-53354819D02*
X67247619Y-53354819D01*
X67247619Y-53354819D02*
X67104762Y-53307200D01*
X67104762Y-53307200D02*
X67009524Y-53211961D01*
X67009524Y-53211961D02*
X66961905Y-53116723D01*
X66961905Y-53116723D02*
X66914286Y-52926247D01*
X66914286Y-52926247D02*
X66914286Y-52783390D01*
X66914286Y-52783390D02*
X66961905Y-52592914D01*
X66961905Y-52592914D02*
X67009524Y-52497676D01*
X67009524Y-52497676D02*
X67104762Y-52402438D01*
X67104762Y-52402438D02*
X67247619Y-52354819D01*
X67247619Y-52354819D02*
X67342857Y-52354819D01*
X67342857Y-52354819D02*
X67485714Y-52402438D01*
X67485714Y-52402438D02*
X67533333Y-52450057D01*
X68104762Y-52783390D02*
X68009524Y-52735771D01*
X68009524Y-52735771D02*
X67961905Y-52688152D01*
X67961905Y-52688152D02*
X67914286Y-52592914D01*
X67914286Y-52592914D02*
X67914286Y-52545295D01*
X67914286Y-52545295D02*
X67961905Y-52450057D01*
X67961905Y-52450057D02*
X68009524Y-52402438D01*
X68009524Y-52402438D02*
X68104762Y-52354819D01*
X68104762Y-52354819D02*
X68295238Y-52354819D01*
X68295238Y-52354819D02*
X68390476Y-52402438D01*
X68390476Y-52402438D02*
X68438095Y-52450057D01*
X68438095Y-52450057D02*
X68485714Y-52545295D01*
X68485714Y-52545295D02*
X68485714Y-52592914D01*
X68485714Y-52592914D02*
X68438095Y-52688152D01*
X68438095Y-52688152D02*
X68390476Y-52735771D01*
X68390476Y-52735771D02*
X68295238Y-52783390D01*
X68295238Y-52783390D02*
X68104762Y-52783390D01*
X68104762Y-52783390D02*
X68009524Y-52831009D01*
X68009524Y-52831009D02*
X67961905Y-52878628D01*
X67961905Y-52878628D02*
X67914286Y-52973866D01*
X67914286Y-52973866D02*
X67914286Y-53164342D01*
X67914286Y-53164342D02*
X67961905Y-53259580D01*
X67961905Y-53259580D02*
X68009524Y-53307200D01*
X68009524Y-53307200D02*
X68104762Y-53354819D01*
X68104762Y-53354819D02*
X68295238Y-53354819D01*
X68295238Y-53354819D02*
X68390476Y-53307200D01*
X68390476Y-53307200D02*
X68438095Y-53259580D01*
X68438095Y-53259580D02*
X68485714Y-53164342D01*
X68485714Y-53164342D02*
X68485714Y-52973866D01*
X68485714Y-52973866D02*
X68438095Y-52878628D01*
X68438095Y-52878628D02*
X68390476Y-52831009D01*
X68390476Y-52831009D02*
X68295238Y-52783390D01*
X65738095Y-48454819D02*
X65738095Y-49264342D01*
X65738095Y-49264342D02*
X65785714Y-49359580D01*
X65785714Y-49359580D02*
X65833333Y-49407200D01*
X65833333Y-49407200D02*
X65928571Y-49454819D01*
X65928571Y-49454819D02*
X66119047Y-49454819D01*
X66119047Y-49454819D02*
X66214285Y-49407200D01*
X66214285Y-49407200D02*
X66261904Y-49359580D01*
X66261904Y-49359580D02*
X66309523Y-49264342D01*
X66309523Y-49264342D02*
X66309523Y-48454819D01*
X67261904Y-48454819D02*
X66785714Y-48454819D01*
X66785714Y-48454819D02*
X66738095Y-48931009D01*
X66738095Y-48931009D02*
X66785714Y-48883390D01*
X66785714Y-48883390D02*
X66880952Y-48835771D01*
X66880952Y-48835771D02*
X67119047Y-48835771D01*
X67119047Y-48835771D02*
X67214285Y-48883390D01*
X67214285Y-48883390D02*
X67261904Y-48931009D01*
X67261904Y-48931009D02*
X67309523Y-49026247D01*
X67309523Y-49026247D02*
X67309523Y-49264342D01*
X67309523Y-49264342D02*
X67261904Y-49359580D01*
X67261904Y-49359580D02*
X67214285Y-49407200D01*
X67214285Y-49407200D02*
X67119047Y-49454819D01*
X67119047Y-49454819D02*
X66880952Y-49454819D01*
X66880952Y-49454819D02*
X66785714Y-49407200D01*
X66785714Y-49407200D02*
X66738095Y-49359580D01*
X57626905Y-49354819D02*
X57626905Y-48354819D01*
X57626905Y-48354819D02*
X57865000Y-48354819D01*
X57865000Y-48354819D02*
X58007857Y-48402438D01*
X58007857Y-48402438D02*
X58103095Y-48497676D01*
X58103095Y-48497676D02*
X58150714Y-48592914D01*
X58150714Y-48592914D02*
X58198333Y-48783390D01*
X58198333Y-48783390D02*
X58198333Y-48926247D01*
X58198333Y-48926247D02*
X58150714Y-49116723D01*
X58150714Y-49116723D02*
X58103095Y-49211961D01*
X58103095Y-49211961D02*
X58007857Y-49307200D01*
X58007857Y-49307200D02*
X57865000Y-49354819D01*
X57865000Y-49354819D02*
X57626905Y-49354819D01*
X59055476Y-48688152D02*
X59055476Y-49354819D01*
X58817381Y-48307200D02*
X58579286Y-49021485D01*
X58579286Y-49021485D02*
X59198333Y-49021485D01*
X36931009Y-35433333D02*
X36931009Y-35766666D01*
X37454819Y-35766666D02*
X36454819Y-35766666D01*
X36454819Y-35766666D02*
X36454819Y-35290476D01*
X37454819Y-34385714D02*
X37454819Y-34957142D01*
X37454819Y-34671428D02*
X36454819Y-34671428D01*
X36454819Y-34671428D02*
X36597676Y-34766666D01*
X36597676Y-34766666D02*
X36692914Y-34861904D01*
X36692914Y-34861904D02*
X36740533Y-34957142D01*
X61459580Y-36366666D02*
X61507200Y-36414285D01*
X61507200Y-36414285D02*
X61554819Y-36557142D01*
X61554819Y-36557142D02*
X61554819Y-36652380D01*
X61554819Y-36652380D02*
X61507200Y-36795237D01*
X61507200Y-36795237D02*
X61411961Y-36890475D01*
X61411961Y-36890475D02*
X61316723Y-36938094D01*
X61316723Y-36938094D02*
X61126247Y-36985713D01*
X61126247Y-36985713D02*
X60983390Y-36985713D01*
X60983390Y-36985713D02*
X60792914Y-36938094D01*
X60792914Y-36938094D02*
X60697676Y-36890475D01*
X60697676Y-36890475D02*
X60602438Y-36795237D01*
X60602438Y-36795237D02*
X60554819Y-36652380D01*
X60554819Y-36652380D02*
X60554819Y-36557142D01*
X60554819Y-36557142D02*
X60602438Y-36414285D01*
X60602438Y-36414285D02*
X60650057Y-36366666D01*
X60554819Y-35509523D02*
X60554819Y-35699999D01*
X60554819Y-35699999D02*
X60602438Y-35795237D01*
X60602438Y-35795237D02*
X60650057Y-35842856D01*
X60650057Y-35842856D02*
X60792914Y-35938094D01*
X60792914Y-35938094D02*
X60983390Y-35985713D01*
X60983390Y-35985713D02*
X61364342Y-35985713D01*
X61364342Y-35985713D02*
X61459580Y-35938094D01*
X61459580Y-35938094D02*
X61507200Y-35890475D01*
X61507200Y-35890475D02*
X61554819Y-35795237D01*
X61554819Y-35795237D02*
X61554819Y-35604761D01*
X61554819Y-35604761D02*
X61507200Y-35509523D01*
X61507200Y-35509523D02*
X61459580Y-35461904D01*
X61459580Y-35461904D02*
X61364342Y-35414285D01*
X61364342Y-35414285D02*
X61126247Y-35414285D01*
X61126247Y-35414285D02*
X61031009Y-35461904D01*
X61031009Y-35461904D02*
X60983390Y-35509523D01*
X60983390Y-35509523D02*
X60935771Y-35604761D01*
X60935771Y-35604761D02*
X60935771Y-35795237D01*
X60935771Y-35795237D02*
X60983390Y-35890475D01*
X60983390Y-35890475D02*
X61031009Y-35938094D01*
X61031009Y-35938094D02*
X61126247Y-35985713D01*
X61433333Y-38724819D02*
X61100000Y-38248628D01*
X60861905Y-38724819D02*
X60861905Y-37724819D01*
X60861905Y-37724819D02*
X61242857Y-37724819D01*
X61242857Y-37724819D02*
X61338095Y-37772438D01*
X61338095Y-37772438D02*
X61385714Y-37820057D01*
X61385714Y-37820057D02*
X61433333Y-37915295D01*
X61433333Y-37915295D02*
X61433333Y-38058152D01*
X61433333Y-38058152D02*
X61385714Y-38153390D01*
X61385714Y-38153390D02*
X61338095Y-38201009D01*
X61338095Y-38201009D02*
X61242857Y-38248628D01*
X61242857Y-38248628D02*
X60861905Y-38248628D01*
X62290476Y-37724819D02*
X62100000Y-37724819D01*
X62100000Y-37724819D02*
X62004762Y-37772438D01*
X62004762Y-37772438D02*
X61957143Y-37820057D01*
X61957143Y-37820057D02*
X61861905Y-37962914D01*
X61861905Y-37962914D02*
X61814286Y-38153390D01*
X61814286Y-38153390D02*
X61814286Y-38534342D01*
X61814286Y-38534342D02*
X61861905Y-38629580D01*
X61861905Y-38629580D02*
X61909524Y-38677200D01*
X61909524Y-38677200D02*
X62004762Y-38724819D01*
X62004762Y-38724819D02*
X62195238Y-38724819D01*
X62195238Y-38724819D02*
X62290476Y-38677200D01*
X62290476Y-38677200D02*
X62338095Y-38629580D01*
X62338095Y-38629580D02*
X62385714Y-38534342D01*
X62385714Y-38534342D02*
X62385714Y-38296247D01*
X62385714Y-38296247D02*
X62338095Y-38201009D01*
X62338095Y-38201009D02*
X62290476Y-38153390D01*
X62290476Y-38153390D02*
X62195238Y-38105771D01*
X62195238Y-38105771D02*
X62004762Y-38105771D01*
X62004762Y-38105771D02*
X61909524Y-38153390D01*
X61909524Y-38153390D02*
X61861905Y-38201009D01*
X61861905Y-38201009D02*
X61814286Y-38296247D01*
X44559580Y-39566666D02*
X44607200Y-39614285D01*
X44607200Y-39614285D02*
X44654819Y-39757142D01*
X44654819Y-39757142D02*
X44654819Y-39852380D01*
X44654819Y-39852380D02*
X44607200Y-39995237D01*
X44607200Y-39995237D02*
X44511961Y-40090475D01*
X44511961Y-40090475D02*
X44416723Y-40138094D01*
X44416723Y-40138094D02*
X44226247Y-40185713D01*
X44226247Y-40185713D02*
X44083390Y-40185713D01*
X44083390Y-40185713D02*
X43892914Y-40138094D01*
X43892914Y-40138094D02*
X43797676Y-40090475D01*
X43797676Y-40090475D02*
X43702438Y-39995237D01*
X43702438Y-39995237D02*
X43654819Y-39852380D01*
X43654819Y-39852380D02*
X43654819Y-39757142D01*
X43654819Y-39757142D02*
X43702438Y-39614285D01*
X43702438Y-39614285D02*
X43750057Y-39566666D01*
X43750057Y-39185713D02*
X43702438Y-39138094D01*
X43702438Y-39138094D02*
X43654819Y-39042856D01*
X43654819Y-39042856D02*
X43654819Y-38804761D01*
X43654819Y-38804761D02*
X43702438Y-38709523D01*
X43702438Y-38709523D02*
X43750057Y-38661904D01*
X43750057Y-38661904D02*
X43845295Y-38614285D01*
X43845295Y-38614285D02*
X43940533Y-38614285D01*
X43940533Y-38614285D02*
X44083390Y-38661904D01*
X44083390Y-38661904D02*
X44654819Y-39233332D01*
X44654819Y-39233332D02*
X44654819Y-38614285D01*
X49457142Y-47859580D02*
X49409523Y-47907200D01*
X49409523Y-47907200D02*
X49266666Y-47954819D01*
X49266666Y-47954819D02*
X49171428Y-47954819D01*
X49171428Y-47954819D02*
X49028571Y-47907200D01*
X49028571Y-47907200D02*
X48933333Y-47811961D01*
X48933333Y-47811961D02*
X48885714Y-47716723D01*
X48885714Y-47716723D02*
X48838095Y-47526247D01*
X48838095Y-47526247D02*
X48838095Y-47383390D01*
X48838095Y-47383390D02*
X48885714Y-47192914D01*
X48885714Y-47192914D02*
X48933333Y-47097676D01*
X48933333Y-47097676D02*
X49028571Y-47002438D01*
X49028571Y-47002438D02*
X49171428Y-46954819D01*
X49171428Y-46954819D02*
X49266666Y-46954819D01*
X49266666Y-46954819D02*
X49409523Y-47002438D01*
X49409523Y-47002438D02*
X49457142Y-47050057D01*
X50409523Y-47954819D02*
X49838095Y-47954819D01*
X50123809Y-47954819D02*
X50123809Y-46954819D01*
X50123809Y-46954819D02*
X50028571Y-47097676D01*
X50028571Y-47097676D02*
X49933333Y-47192914D01*
X49933333Y-47192914D02*
X49838095Y-47240533D01*
X51028571Y-46954819D02*
X51123809Y-46954819D01*
X51123809Y-46954819D02*
X51219047Y-47002438D01*
X51219047Y-47002438D02*
X51266666Y-47050057D01*
X51266666Y-47050057D02*
X51314285Y-47145295D01*
X51314285Y-47145295D02*
X51361904Y-47335771D01*
X51361904Y-47335771D02*
X51361904Y-47573866D01*
X51361904Y-47573866D02*
X51314285Y-47764342D01*
X51314285Y-47764342D02*
X51266666Y-47859580D01*
X51266666Y-47859580D02*
X51219047Y-47907200D01*
X51219047Y-47907200D02*
X51123809Y-47954819D01*
X51123809Y-47954819D02*
X51028571Y-47954819D01*
X51028571Y-47954819D02*
X50933333Y-47907200D01*
X50933333Y-47907200D02*
X50885714Y-47859580D01*
X50885714Y-47859580D02*
X50838095Y-47764342D01*
X50838095Y-47764342D02*
X50790476Y-47573866D01*
X50790476Y-47573866D02*
X50790476Y-47335771D01*
X50790476Y-47335771D02*
X50838095Y-47145295D01*
X50838095Y-47145295D02*
X50885714Y-47050057D01*
X50885714Y-47050057D02*
X50933333Y-47002438D01*
X50933333Y-47002438D02*
X51028571Y-46954819D01*
X51059580Y-34366666D02*
X51107200Y-34414285D01*
X51107200Y-34414285D02*
X51154819Y-34557142D01*
X51154819Y-34557142D02*
X51154819Y-34652380D01*
X51154819Y-34652380D02*
X51107200Y-34795237D01*
X51107200Y-34795237D02*
X51011961Y-34890475D01*
X51011961Y-34890475D02*
X50916723Y-34938094D01*
X50916723Y-34938094D02*
X50726247Y-34985713D01*
X50726247Y-34985713D02*
X50583390Y-34985713D01*
X50583390Y-34985713D02*
X50392914Y-34938094D01*
X50392914Y-34938094D02*
X50297676Y-34890475D01*
X50297676Y-34890475D02*
X50202438Y-34795237D01*
X50202438Y-34795237D02*
X50154819Y-34652380D01*
X50154819Y-34652380D02*
X50154819Y-34557142D01*
X50154819Y-34557142D02*
X50202438Y-34414285D01*
X50202438Y-34414285D02*
X50250057Y-34366666D01*
X50154819Y-34033332D02*
X50154819Y-33414285D01*
X50154819Y-33414285D02*
X50535771Y-33747618D01*
X50535771Y-33747618D02*
X50535771Y-33604761D01*
X50535771Y-33604761D02*
X50583390Y-33509523D01*
X50583390Y-33509523D02*
X50631009Y-33461904D01*
X50631009Y-33461904D02*
X50726247Y-33414285D01*
X50726247Y-33414285D02*
X50964342Y-33414285D01*
X50964342Y-33414285D02*
X51059580Y-33461904D01*
X51059580Y-33461904D02*
X51107200Y-33509523D01*
X51107200Y-33509523D02*
X51154819Y-33604761D01*
X51154819Y-33604761D02*
X51154819Y-33890475D01*
X51154819Y-33890475D02*
X51107200Y-33985713D01*
X51107200Y-33985713D02*
X51059580Y-34033332D01*
X45054819Y-45761904D02*
X45864342Y-45761904D01*
X45864342Y-45761904D02*
X45959580Y-45714285D01*
X45959580Y-45714285D02*
X46007200Y-45666666D01*
X46007200Y-45666666D02*
X46054819Y-45571428D01*
X46054819Y-45571428D02*
X46054819Y-45380952D01*
X46054819Y-45380952D02*
X46007200Y-45285714D01*
X46007200Y-45285714D02*
X45959580Y-45238095D01*
X45959580Y-45238095D02*
X45864342Y-45190476D01*
X45864342Y-45190476D02*
X45054819Y-45190476D01*
X45150057Y-44761904D02*
X45102438Y-44714285D01*
X45102438Y-44714285D02*
X45054819Y-44619047D01*
X45054819Y-44619047D02*
X45054819Y-44380952D01*
X45054819Y-44380952D02*
X45102438Y-44285714D01*
X45102438Y-44285714D02*
X45150057Y-44238095D01*
X45150057Y-44238095D02*
X45245295Y-44190476D01*
X45245295Y-44190476D02*
X45340533Y-44190476D01*
X45340533Y-44190476D02*
X45483390Y-44238095D01*
X45483390Y-44238095D02*
X46054819Y-44809523D01*
X46054819Y-44809523D02*
X46054819Y-44190476D01*
X56138095Y-41154819D02*
X56138095Y-41964342D01*
X56138095Y-41964342D02*
X56185714Y-42059580D01*
X56185714Y-42059580D02*
X56233333Y-42107200D01*
X56233333Y-42107200D02*
X56328571Y-42154819D01*
X56328571Y-42154819D02*
X56519047Y-42154819D01*
X56519047Y-42154819D02*
X56614285Y-42107200D01*
X56614285Y-42107200D02*
X56661904Y-42059580D01*
X56661904Y-42059580D02*
X56709523Y-41964342D01*
X56709523Y-41964342D02*
X56709523Y-41154819D01*
X57614285Y-41488152D02*
X57614285Y-42154819D01*
X57376190Y-41107200D02*
X57138095Y-41821485D01*
X57138095Y-41821485D02*
X57757142Y-41821485D01*
X64413095Y-37054819D02*
X64413095Y-37864342D01*
X64413095Y-37864342D02*
X64460714Y-37959580D01*
X64460714Y-37959580D02*
X64508333Y-38007200D01*
X64508333Y-38007200D02*
X64603571Y-38054819D01*
X64603571Y-38054819D02*
X64794047Y-38054819D01*
X64794047Y-38054819D02*
X64889285Y-38007200D01*
X64889285Y-38007200D02*
X64936904Y-37959580D01*
X64936904Y-37959580D02*
X64984523Y-37864342D01*
X64984523Y-37864342D02*
X64984523Y-37054819D01*
X65365476Y-37054819D02*
X65984523Y-37054819D01*
X65984523Y-37054819D02*
X65651190Y-37435771D01*
X65651190Y-37435771D02*
X65794047Y-37435771D01*
X65794047Y-37435771D02*
X65889285Y-37483390D01*
X65889285Y-37483390D02*
X65936904Y-37531009D01*
X65936904Y-37531009D02*
X65984523Y-37626247D01*
X65984523Y-37626247D02*
X65984523Y-37864342D01*
X65984523Y-37864342D02*
X65936904Y-37959580D01*
X65936904Y-37959580D02*
X65889285Y-38007200D01*
X65889285Y-38007200D02*
X65794047Y-38054819D01*
X65794047Y-38054819D02*
X65508333Y-38054819D01*
X65508333Y-38054819D02*
X65413095Y-38007200D01*
X65413095Y-38007200D02*
X65365476Y-37959580D01*
X50061905Y-52354819D02*
X50061905Y-51354819D01*
X50061905Y-51354819D02*
X50300000Y-51354819D01*
X50300000Y-51354819D02*
X50442857Y-51402438D01*
X50442857Y-51402438D02*
X50538095Y-51497676D01*
X50538095Y-51497676D02*
X50585714Y-51592914D01*
X50585714Y-51592914D02*
X50633333Y-51783390D01*
X50633333Y-51783390D02*
X50633333Y-51926247D01*
X50633333Y-51926247D02*
X50585714Y-52116723D01*
X50585714Y-52116723D02*
X50538095Y-52211961D01*
X50538095Y-52211961D02*
X50442857Y-52307200D01*
X50442857Y-52307200D02*
X50300000Y-52354819D01*
X50300000Y-52354819D02*
X50061905Y-52354819D01*
X51538095Y-51354819D02*
X51061905Y-51354819D01*
X51061905Y-51354819D02*
X51014286Y-51831009D01*
X51014286Y-51831009D02*
X51061905Y-51783390D01*
X51061905Y-51783390D02*
X51157143Y-51735771D01*
X51157143Y-51735771D02*
X51395238Y-51735771D01*
X51395238Y-51735771D02*
X51490476Y-51783390D01*
X51490476Y-51783390D02*
X51538095Y-51831009D01*
X51538095Y-51831009D02*
X51585714Y-51926247D01*
X51585714Y-51926247D02*
X51585714Y-52164342D01*
X51585714Y-52164342D02*
X51538095Y-52259580D01*
X51538095Y-52259580D02*
X51490476Y-52307200D01*
X51490476Y-52307200D02*
X51395238Y-52354819D01*
X51395238Y-52354819D02*
X51157143Y-52354819D01*
X51157143Y-52354819D02*
X51061905Y-52307200D01*
X51061905Y-52307200D02*
X51014286Y-52259580D01*
X63533333Y-42524819D02*
X63200000Y-42048628D01*
X62961905Y-42524819D02*
X62961905Y-41524819D01*
X62961905Y-41524819D02*
X63342857Y-41524819D01*
X63342857Y-41524819D02*
X63438095Y-41572438D01*
X63438095Y-41572438D02*
X63485714Y-41620057D01*
X63485714Y-41620057D02*
X63533333Y-41715295D01*
X63533333Y-41715295D02*
X63533333Y-41858152D01*
X63533333Y-41858152D02*
X63485714Y-41953390D01*
X63485714Y-41953390D02*
X63438095Y-42001009D01*
X63438095Y-42001009D02*
X63342857Y-42048628D01*
X63342857Y-42048628D02*
X62961905Y-42048628D01*
X63866667Y-41524819D02*
X64533333Y-41524819D01*
X64533333Y-41524819D02*
X64104762Y-42524819D01*
X52333333Y-47859580D02*
X52285714Y-47907200D01*
X52285714Y-47907200D02*
X52142857Y-47954819D01*
X52142857Y-47954819D02*
X52047619Y-47954819D01*
X52047619Y-47954819D02*
X51904762Y-47907200D01*
X51904762Y-47907200D02*
X51809524Y-47811961D01*
X51809524Y-47811961D02*
X51761905Y-47716723D01*
X51761905Y-47716723D02*
X51714286Y-47526247D01*
X51714286Y-47526247D02*
X51714286Y-47383390D01*
X51714286Y-47383390D02*
X51761905Y-47192914D01*
X51761905Y-47192914D02*
X51809524Y-47097676D01*
X51809524Y-47097676D02*
X51904762Y-47002438D01*
X51904762Y-47002438D02*
X52047619Y-46954819D01*
X52047619Y-46954819D02*
X52142857Y-46954819D01*
X52142857Y-46954819D02*
X52285714Y-47002438D01*
X52285714Y-47002438D02*
X52333333Y-47050057D01*
X52809524Y-47954819D02*
X53000000Y-47954819D01*
X53000000Y-47954819D02*
X53095238Y-47907200D01*
X53095238Y-47907200D02*
X53142857Y-47859580D01*
X53142857Y-47859580D02*
X53238095Y-47716723D01*
X53238095Y-47716723D02*
X53285714Y-47526247D01*
X53285714Y-47526247D02*
X53285714Y-47145295D01*
X53285714Y-47145295D02*
X53238095Y-47050057D01*
X53238095Y-47050057D02*
X53190476Y-47002438D01*
X53190476Y-47002438D02*
X53095238Y-46954819D01*
X53095238Y-46954819D02*
X52904762Y-46954819D01*
X52904762Y-46954819D02*
X52809524Y-47002438D01*
X52809524Y-47002438D02*
X52761905Y-47050057D01*
X52761905Y-47050057D02*
X52714286Y-47145295D01*
X52714286Y-47145295D02*
X52714286Y-47383390D01*
X52714286Y-47383390D02*
X52761905Y-47478628D01*
X52761905Y-47478628D02*
X52809524Y-47526247D01*
X52809524Y-47526247D02*
X52904762Y-47573866D01*
X52904762Y-47573866D02*
X53095238Y-47573866D01*
X53095238Y-47573866D02*
X53190476Y-47526247D01*
X53190476Y-47526247D02*
X53238095Y-47478628D01*
X53238095Y-47478628D02*
X53285714Y-47383390D01*
X51433333Y-41054819D02*
X51100000Y-40578628D01*
X50861905Y-41054819D02*
X50861905Y-40054819D01*
X50861905Y-40054819D02*
X51242857Y-40054819D01*
X51242857Y-40054819D02*
X51338095Y-40102438D01*
X51338095Y-40102438D02*
X51385714Y-40150057D01*
X51385714Y-40150057D02*
X51433333Y-40245295D01*
X51433333Y-40245295D02*
X51433333Y-40388152D01*
X51433333Y-40388152D02*
X51385714Y-40483390D01*
X51385714Y-40483390D02*
X51338095Y-40531009D01*
X51338095Y-40531009D02*
X51242857Y-40578628D01*
X51242857Y-40578628D02*
X50861905Y-40578628D01*
X52290476Y-40388152D02*
X52290476Y-41054819D01*
X52052381Y-40007200D02*
X51814286Y-40721485D01*
X51814286Y-40721485D02*
X52433333Y-40721485D01*
X69464580Y-36266666D02*
X69512200Y-36314285D01*
X69512200Y-36314285D02*
X69559819Y-36457142D01*
X69559819Y-36457142D02*
X69559819Y-36552380D01*
X69559819Y-36552380D02*
X69512200Y-36695237D01*
X69512200Y-36695237D02*
X69416961Y-36790475D01*
X69416961Y-36790475D02*
X69321723Y-36838094D01*
X69321723Y-36838094D02*
X69131247Y-36885713D01*
X69131247Y-36885713D02*
X68988390Y-36885713D01*
X68988390Y-36885713D02*
X68797914Y-36838094D01*
X68797914Y-36838094D02*
X68702676Y-36790475D01*
X68702676Y-36790475D02*
X68607438Y-36695237D01*
X68607438Y-36695237D02*
X68559819Y-36552380D01*
X68559819Y-36552380D02*
X68559819Y-36457142D01*
X68559819Y-36457142D02*
X68607438Y-36314285D01*
X68607438Y-36314285D02*
X68655057Y-36266666D01*
X68559819Y-35933332D02*
X68559819Y-35266666D01*
X68559819Y-35266666D02*
X69559819Y-35695237D01*
X45733333Y-50784819D02*
X45400000Y-50308628D01*
X45161905Y-50784819D02*
X45161905Y-49784819D01*
X45161905Y-49784819D02*
X45542857Y-49784819D01*
X45542857Y-49784819D02*
X45638095Y-49832438D01*
X45638095Y-49832438D02*
X45685714Y-49880057D01*
X45685714Y-49880057D02*
X45733333Y-49975295D01*
X45733333Y-49975295D02*
X45733333Y-50118152D01*
X45733333Y-50118152D02*
X45685714Y-50213390D01*
X45685714Y-50213390D02*
X45638095Y-50261009D01*
X45638095Y-50261009D02*
X45542857Y-50308628D01*
X45542857Y-50308628D02*
X45161905Y-50308628D01*
X46685714Y-50784819D02*
X46114286Y-50784819D01*
X46400000Y-50784819D02*
X46400000Y-49784819D01*
X46400000Y-49784819D02*
X46304762Y-49927676D01*
X46304762Y-49927676D02*
X46209524Y-50022914D01*
X46209524Y-50022914D02*
X46114286Y-50070533D01*
X46438095Y-34054819D02*
X46438095Y-34864342D01*
X46438095Y-34864342D02*
X46485714Y-34959580D01*
X46485714Y-34959580D02*
X46533333Y-35007200D01*
X46533333Y-35007200D02*
X46628571Y-35054819D01*
X46628571Y-35054819D02*
X46819047Y-35054819D01*
X46819047Y-35054819D02*
X46914285Y-35007200D01*
X46914285Y-35007200D02*
X46961904Y-34959580D01*
X46961904Y-34959580D02*
X47009523Y-34864342D01*
X47009523Y-34864342D02*
X47009523Y-34054819D01*
X48009523Y-35054819D02*
X47438095Y-35054819D01*
X47723809Y-35054819D02*
X47723809Y-34054819D01*
X47723809Y-34054819D02*
X47628571Y-34197676D01*
X47628571Y-34197676D02*
X47533333Y-34292914D01*
X47533333Y-34292914D02*
X47438095Y-34340533D01*
D11*
X37410000Y-38240000D02*
X37410000Y-40590000D01*
X35660000Y-38240000D02*
X37410000Y-38240000D01*
X30240000Y-39810000D02*
X30240000Y-47190000D01*
X37410000Y-40590000D02*
X39650000Y-40590000D01*
X37410000Y-48760000D02*
X37410000Y-46410000D01*
X35660000Y-48760000D02*
X37410000Y-48760000D01*
X40490000Y-30450000D02*
X40490000Y-33750000D01*
X40490000Y-30450000D02*
X46000000Y-30450000D01*
X40490000Y-33750000D02*
X46000000Y-33750000D01*
X43162742Y-45277500D02*
X43637258Y-45277500D01*
X43162742Y-46322500D02*
X43637258Y-46322500D01*
X54575000Y-54000000D02*
G75*
G02*
X52675000Y-54000000I-950000J0D01*
G01*
X52675000Y-54000000D02*
G75*
G02*
X54575000Y-54000000I950000J0D01*
G01*
X47190000Y-41240580D02*
X47190000Y-40959420D01*
X48210000Y-41240580D02*
X48210000Y-40959420D01*
X41465000Y-36638748D02*
X41465000Y-37161252D01*
X42935000Y-36638748D02*
X42935000Y-37161252D01*
X59837742Y-33877500D02*
X60312258Y-33877500D01*
X59837742Y-34922500D02*
X60312258Y-34922500D01*
X43637258Y-43677500D02*
X43162742Y-43677500D01*
X43637258Y-44722500D02*
X43162742Y-44722500D01*
X55437258Y-49977500D02*
X54962742Y-49977500D01*
X55437258Y-51022500D02*
X54962742Y-51022500D01*
X40500000Y-47300000D02*
X40500000Y-45340000D01*
X41700000Y-45340000D02*
X40500000Y-45340000D01*
X41700000Y-47300000D02*
X41700000Y-45340000D01*
X40500000Y-42800000D02*
X40500000Y-44760000D01*
X40500000Y-44760000D02*
X41700000Y-44760000D01*
X41700000Y-42800000D02*
X41700000Y-44760000D01*
X45690000Y-41240580D02*
X45690000Y-40959420D01*
X46710000Y-41240580D02*
X46710000Y-40959420D01*
X68090000Y-50840580D02*
X68090000Y-50559420D01*
X69110000Y-50840580D02*
X69110000Y-50559420D01*
X59450000Y-54000000D02*
G75*
G02*
X57550000Y-54000000I-950000J0D01*
G01*
X57550000Y-54000000D02*
G75*
G02*
X59450000Y-54000000I950000J0D01*
G01*
X65750000Y-49840000D02*
X67250000Y-49840000D01*
X65750000Y-51560000D02*
X67250000Y-51560000D01*
X65300000Y-50100000D02*
X65020000Y-50100000D01*
X65300000Y-49820000D01*
X65300000Y-50100000D01*
G36*
X65300000Y-50100000D02*
G01*
X65020000Y-50100000D01*
X65300000Y-49820000D01*
X65300000Y-50100000D01*
G37*
X56880000Y-49725000D02*
X56880000Y-51195000D01*
X56880000Y-51195000D02*
X59165000Y-51195000D01*
X59165000Y-49725000D02*
X56880000Y-49725000D01*
X38000000Y-34400000D02*
X38000000Y-32800000D01*
X39600000Y-34400000D02*
X39600000Y-32800000D01*
X61965000Y-34959420D02*
X61965000Y-35240580D01*
X62985000Y-34959420D02*
X62985000Y-35240580D01*
X61362742Y-39177500D02*
X61837258Y-39177500D01*
X61362742Y-40222500D02*
X61837258Y-40222500D01*
X43690000Y-36759420D02*
X43690000Y-37040580D01*
X44710000Y-36759420D02*
X44710000Y-37040580D01*
X44825000Y-54000000D02*
G75*
G02*
X42925000Y-54000000I-950000J0D01*
G01*
X42925000Y-54000000D02*
G75*
G02*
X44825000Y-54000000I950000J0D01*
G01*
X49865000Y-44838748D02*
X49865000Y-45361252D01*
X51335000Y-44838748D02*
X51335000Y-45361252D01*
X49965000Y-36638748D02*
X49965000Y-37161252D01*
X51435000Y-36638748D02*
X51435000Y-37161252D01*
X68450000Y-44500000D02*
G75*
G02*
X66550000Y-44500000I-950000J0D01*
G01*
X66550000Y-44500000D02*
G75*
G02*
X68450000Y-44500000I950000J0D01*
G01*
X49700000Y-54000000D02*
G75*
G02*
X47800000Y-54000000I-950000J0D01*
G01*
X47800000Y-54000000D02*
G75*
G02*
X49700000Y-54000000I950000J0D01*
G01*
X46400000Y-43900000D02*
X46400000Y-46100000D01*
X48600000Y-43900000D02*
X48600000Y-46100000D01*
X46850000Y-47350000D02*
X46650000Y-47350000D01*
X46750000Y-47200000D01*
X46850000Y-47350000D01*
X56900000Y-42540000D02*
X54950000Y-42540000D01*
X56900000Y-42540000D02*
X58850000Y-42540000D01*
X56900000Y-47660000D02*
X54950000Y-47660000D01*
X56900000Y-47660000D02*
X58850000Y-47660000D01*
X54200000Y-42635000D02*
X53960000Y-42305000D01*
X54440000Y-42305000D01*
X54200000Y-42635000D01*
G36*
X54200000Y-42635000D02*
G01*
X53960000Y-42305000D01*
X54440000Y-42305000D01*
X54200000Y-42635000D01*
G37*
X63975000Y-34000000D02*
X66375000Y-34000000D01*
X63975000Y-36600000D02*
X66375000Y-36600000D01*
X63655000Y-34200000D02*
X63375000Y-34200000D01*
X63655000Y-33920000D01*
X63655000Y-34200000D01*
G36*
X63655000Y-34200000D02*
G01*
X63375000Y-34200000D01*
X63655000Y-33920000D01*
X63655000Y-34200000D01*
G37*
X50090000Y-48740000D02*
X51500000Y-48740000D01*
X50100000Y-51060000D02*
X51500000Y-51060000D01*
X49720000Y-48790000D02*
X49480000Y-48460000D01*
X49960000Y-48460000D01*
X49720000Y-48790000D01*
G36*
X49720000Y-48790000D02*
G01*
X49480000Y-48460000D01*
X49960000Y-48460000D01*
X49720000Y-48790000D01*
G37*
X63462742Y-42977500D02*
X63937258Y-42977500D01*
X63462742Y-44022500D02*
X63937258Y-44022500D01*
X68450000Y-40500000D02*
G75*
G02*
X66550000Y-40500000I-950000J0D01*
G01*
X66550000Y-40500000D02*
G75*
G02*
X68450000Y-40500000I950000J0D01*
G01*
X39950000Y-54000000D02*
G75*
G02*
X38050000Y-54000000I-950000J0D01*
G01*
X38050000Y-54000000D02*
G75*
G02*
X39950000Y-54000000I950000J0D01*
G01*
X51890000Y-44959420D02*
X51890000Y-45240580D01*
X52910000Y-44959420D02*
X52910000Y-45240580D01*
X51362742Y-41377500D02*
X51837258Y-41377500D01*
X51362742Y-42422500D02*
X51837258Y-42422500D01*
X67165000Y-35959420D02*
X67165000Y-36240580D01*
X68185000Y-35959420D02*
X68185000Y-36240580D01*
X46137258Y-48377500D02*
X45662742Y-48377500D01*
X46137258Y-49422500D02*
X45662742Y-49422500D01*
X47200000Y-35340000D02*
X46400000Y-35340000D01*
X47200000Y-35340000D02*
X48000000Y-35340000D01*
X47200000Y-38460000D02*
X46400000Y-38460000D01*
X47200000Y-38460000D02*
X48000000Y-38460000D01*
X45900000Y-35390000D02*
X45660000Y-35060000D01*
X46140000Y-35060000D01*
X45900000Y-35390000D01*
G36*
X45900000Y-35390000D02*
G01*
X45660000Y-35060000D01*
X46140000Y-35060000D01*
X45900000Y-35390000D01*
G37*
%LPC*%
D12*
X38200000Y-41250000D03*
X38200000Y-42750000D03*
X38200000Y-44250000D03*
X38200000Y-45750000D03*
D13*
X33500000Y-38650000D03*
X33500000Y-48350000D03*
D14*
X42000000Y-32100000D03*
X46000000Y-32100000D03*
D15*
X42575000Y-45800000D03*
X44225000Y-45800000D03*
D16*
X53625000Y-54000000D03*
D17*
X47700000Y-41875000D03*
X47700000Y-40325000D03*
D18*
X42200000Y-35950000D03*
X42200000Y-37850000D03*
D15*
X59250000Y-34400000D03*
X60900000Y-34400000D03*
D19*
X44225000Y-44200000D03*
X42575000Y-44200000D03*
X56025000Y-50500000D03*
X54375000Y-50500000D03*
D20*
X41100000Y-45900000D03*
X41100000Y-47300000D03*
D21*
X41100000Y-44200000D03*
X41100000Y-42800000D03*
D17*
X46200000Y-41875000D03*
X46200000Y-40325000D03*
X68600000Y-51475000D03*
X68600000Y-49925000D03*
D16*
X58500000Y-54000000D03*
D22*
X65800000Y-50300000D03*
X65800000Y-51100000D03*
X67200000Y-51100000D03*
X67200000Y-50300000D03*
D23*
X57577500Y-50460000D03*
X59152500Y-50460000D03*
D24*
X38800000Y-35100000D03*
X38800000Y-32100000D03*
D25*
X62475000Y-34325000D03*
X62475000Y-35875000D03*
D15*
X60775000Y-39700000D03*
X62425000Y-39700000D03*
D25*
X44200000Y-36125000D03*
X44200000Y-37675000D03*
D16*
X43875000Y-54000000D03*
D18*
X50600000Y-44150000D03*
X50600000Y-46050000D03*
D26*
X33500000Y-33500000D03*
D18*
X50700000Y-35950000D03*
X50700000Y-37850000D03*
D16*
X67500000Y-44500000D03*
X48750000Y-54000000D03*
D27*
X46750000Y-46550000D03*
X47250000Y-46550000D03*
X47750000Y-46550000D03*
X48250000Y-46550000D03*
X48250000Y-43450000D03*
X47750000Y-43450000D03*
X47250000Y-43450000D03*
X46750000Y-43450000D03*
D28*
X54425000Y-43195000D03*
X54425000Y-44465000D03*
X54425000Y-45735000D03*
X54425000Y-47005000D03*
X59375000Y-47005000D03*
X59375000Y-45735000D03*
X59375000Y-44465000D03*
X59375000Y-43195000D03*
D29*
X64025000Y-34500000D03*
X64025000Y-35300000D03*
X64025000Y-36100000D03*
X66325000Y-36100000D03*
X66325000Y-35300000D03*
X66325000Y-34500000D03*
D30*
X65175000Y-35300000D03*
D31*
X49850000Y-49250000D03*
X49850000Y-49900000D03*
X49850000Y-50550000D03*
X51750000Y-50550000D03*
X51750000Y-49250000D03*
D15*
X62875000Y-43500000D03*
X64525000Y-43500000D03*
D16*
X67500000Y-40500000D03*
X39000000Y-54000000D03*
D25*
X52400000Y-44325000D03*
X52400000Y-45875000D03*
D15*
X50775000Y-41900000D03*
X52425000Y-41900000D03*
D25*
X67675000Y-35325000D03*
X67675000Y-36875000D03*
D19*
X46725000Y-48900000D03*
X45075000Y-48900000D03*
D32*
X46062500Y-35950000D03*
X46062500Y-36900000D03*
X46062500Y-37850000D03*
X48337500Y-37850000D03*
X48337500Y-35950000D03*
D26*
X33500000Y-53500000D03*
%LPD*%
M02*
